<svg viewBox="0 0 128 128" xmlns="http://www.w3.org/2000/svg" fill-rule="evenodd" clip-rule="evenodd" stroke-linejoin="round" stroke-miterlimit="1.41"><clipPath id="a"><circle cx="63.95" cy="64" r="64"/></clipPath><g clip-path="url(#a)" fill-rule="nonzero"><path d="M0 64V0h128v128H0V64z" fill="#F4EED9"/><path d="M0 101c0-24 0-27 1-27 2 0 4-3 4-5 1-1 1-1 2-1 0 0 1-2 1-4 0-3-1-4-1-4-1 0-1 0-1 1s-3 1-5-1c-1-1-1-7-1-31V0h17c13 0 17 0 18 1 0 1 0 1 0 0 1-1 85-1 85 0 0 0 0 1 2 1s2 3 0 4c0 0-1 1 0 1 0 1 1 0 1 0 1-2 2-2 3 0 1 1 2 5 2 29 0 18-1 28-1 28-1 0-1-2-1-3 0-2-1-3-1-3-1 0-1 1-1 3 0 1-1 3-1 3-1 0-1 0-1 2 0 1-1 2-1 2-1 0-1 0-1 1s3 1 5-1c0-2 1-2 2-2 0 0 1 3 1 8 0 8-1 9-2 11-2 0-2 2-2 3 0 0-1 2-2 3-2 0-2 2-2 3-1 1-1 2-2 2 0 0-1 1 0 1 1 1 4-2 4-3 0-2 4-6 5-6 0 0 1 6 1 15v15h-5c-5 0-5-1-5-2 0-3-1-3-4 0-2 2-3 3-2 3s1 2 2 5c0 3-1 4-4 4s-4-1-4-1c0-1-1-1-2-1-2 0-2 0-2 1 0 0-18 1-51 1H0v-27zm30 12c0-1-1-1-1-1-1 0-1 0-1 1 0 0 0 1 1 1l1-1zm-4-8c0-1-1-1-1-1-1 0-1 0-1 1 0 0 0 1 1 1l1-1zm92-4c0-1-1-2-2-2-2-2-2-3-2-6 0-2-1-3-1-3-1 0-1 1-1 4 0 2 0 4 1 4 0 0 1 0 1 2 0 1 0 2 2 2 1 0 2-1 2-1zm-34-3c1-1 1-2 1-2 0-1-3 2-3 3s1 1 2-1zm24-15c0-1-1-1-1-1-1 0-1 0-1 1 0 0 0 1 1 1l1-1zm18-1c0-2-1-2-2-2-2 0-2 0-2 2 0 1 0 2 2 2 1 0 2-1 2-2zm-4-7c0-1-1-1-1-1-1 0-1 0-1 1 0 0 0 1 1 1l1-1zM20 71c0-1-1-1-1-1-1 0-1 0-1 1 0 0 0 1 1 1l1-1zm42-2c0-1-1-1-1-1-1 0-1 0-1 1 0 0 0 1 1 1l1-1zm32-3c2-2 2-2 0-2s-2 0-2 2 0 2 2 0zm22-1c0-1-1-1-1-1-1 0-1 0-1 1 0 0 0 1 1 1l1-1zm-44-5c0-4-1-4-2-4-2 0-2 0-2 1 0 0-1 1-2 1-3 0-3 0 0 3 3 4 6 3 6-1zm44-2c0-2-1-2-1-2-1 0-1 0-1 2 0 1 0 2 1 2 0 0 1-1 1-2zm-94-1c0-1-1-2-2-2-2-1-2-3-2-4s-1-1-1-1c-2 0-2 2 1 5 2 2 4 3 4 2zm38 0l-2-2c-2-2-3-1-1 1 1 1 3 2 3 1zm10-6c0-2-1-3-1-3-1 0-1 1-1 3 0 1 0 3 1 3 0 0 1-2 1-3zm-18-1c0-2-3-4-4-4s-1 3 1 4c1 2 3 2 3 0zm56-3c0-1-1-1-1-1-1 0-1 0-1 1 0 0 0 1 1 1l1-1zm-40-2c0-1-1-1-1-1-1 0-1 0-1 1 0 0 0 1 1 1l1-1zm36-10c0-4-3-6-5-5l-1 1c1 0 2 1 2 2 0 2 1 4 3 4 0 0 1-1 1-2zm-56-2c0-1-1-1-1-1-1 0-1 0-1 1 0 0 0 1 1 1l1-1zm18-5c0-2-1-2-1-2-1 0-1 0-1 2 0 1 0 2 1 2 0 0 1-1 1-2zm34 1c0-1-1-1-1-1-1 0-1 0-1 1 0 0 0 1 1 1l1-1zm12-1c0-2-1-2-2-2-3 0-3 0-1 2s3 2 3 0zm-6-5c0-1-5-5-7-5-1 0-2-1-2-2 0 0-1-1-1 0-1 1 2 4 4 4 0 0 2 0 3 2 1 1 3 2 3 1zm-76-4c0-2-1-3-1-3-1 0-1 1-1 3 0 1 0 3 1 3 0 0 1-2 1-3zm92 1c0-2-3-4-5-4s-2 0 1 3c2 3 4 3 4 1zm-60-7c0-3-1-3-2-3s-3-1-4-3l-1-2-1 2c0 2-1 3-1 3-1 0-2 0-2 2 0 1-1 2-2 2s-1 0-1 1c0 0 1 1 3 1 1 0 3-1 3-1 0-2 2-2 4 0 3 2 4 2 4-2zM42 6c2-2 3-4 3-4 0-1-1 0-1 0 0 1-2 2-4 2-1 0-2 0-2 1 0 0-1 1-2 1-2 0-2 0-2 2 0 1-1 2-1 2-1 0-1 0-1 1 0 2 5-1 10-5zm12 1c0-1-1-1-1-1s-1 0-1 1v1c1 0 2-1 2-1z" fill="#E9D6A6"/><path d="M0 102c0-24 0-25 2-25 1 0 2-1 2-2s0-1 1-1c0 0 1-1 1-2 0-2 0-2 1-2 0 0 1-3 1-5 0-3-1-5-1-5-1 0-1 0-1 1s-3 1-5-1c-1-1-1-7-1-31V0h17c10 0 17 0 17 1 0 0-1 1-2 1-2 0-2 0-2 1s3 1 5-2c1-1 2-1 8-1 4 0 7 0 7 1 0 0-2 1-4 1-3 0-4 0-4 1 0 0-1 1-2 1-2 0-2 0-2 1h-2c-2 0-5 3-5 5 0 0 0 2-2 3-1 1-2 2-1 6 0 2 0 5 1 5 0 0 1 0 1 2 0 1 0 2 1 2 0 0 1 0 1 2 0 1 0 2 2 2 1 0 2-1 2-2 0-2 0-2 2-2s4 0 4 1 1 1 1 0 2-1 4-1c4 0 9 3 9 6 0 1 0 2 1 2s3 0 3 1c0 0 1 1 1 0 0 0-1-2-2-3-4-4-4-6-1-7 2-1 3-1 4 0 0 0-1 1-2 1-3 0-3 0-1 2 1 2 2 2 2 1s2-1 4-1 3-1 3-2c0-2-1-2-1-2-2 0-2-12 0-13 1 0-2-4-4-4h-1c0-1-1-1-2-1-2 0-2-1-2-1 0-2 3-2 4 0 0 0 1 1 1 0 0 0 0-1-1-2-2-1-3-3-3-4 1-1 3-1 31-1 19 0 30 0 30 1 0 0 0 1 2 1s2 3 0 4c0 0-1 1 0 1 0 1 1 0 1 0 1-2 2-2 3 0 1 1 2 4 2 17 0 10-1 16-1 16-1 0-1 0-1 1-1 1-1 3-2 3s0 1 1 2c2 2 3 3 3 9 0 4-1 7-1 7-1 0-1-1-1-2 0-2-1-2-2-2-3 0-3 1-1 2 1 0 1 1 0 1s-1 2-1 4c0 1-1 3-1 3-1 0-1 0-1 1 0 0 0 1 2 1 1 0 2-1 2-1 0-1 0-1 2-1 1 0 2 0 2 7 0 4-1 7-1 7-1 0-1-1-1-2 0-2-1-2-2-2-2 0-2-1-2-1 0-1 0-1 2-1 1 0 2-1 2-2 0-2-1-2-1-2-1 0-1 0-1 1 0 0-1 1-2 0-1 0-6 5-6 6 0 0 0 1 2 1 1 0 2 0 2 2-1 2 0 4 1 4s1 1 0 1-2 2-1 4c0 1-1 3-1 3-1 0-1 0-1 2 0 1-1 2-1 2-1 0-1-1-1-2 0-2-1-2-1-2-1 0-1-1-1-2 0-2-5-6-8-6-1 0-4 2-4 3 0 0 1 1 3 1 1 0 3-1 3-1 0-1 0-1 1-1 0 0 1 1 1 4 0 2 0 4 1 4 0 0 1 0 1 1s1 3 3 5 3 3 2 3-2 3-2 5c0 4 0 5-2 7-1 0-2 2-1 4 0 2-1 3-2 3-2 0-2 0-2 1 0 0-1 1-2 1-2 0-2-1-2-1 0-1-1-1-2-1s-3-1-4-2c0-2-1-2-2-2s0 3 1 5c2 0 2 1 3 2 0 1-26 1-27-1 0-1-1-1-1 0-1 1-9 2-37 2H0v-26zm94 16c0-1 0-3 1-3 0 0 1-1 0-1 0-1-1 0-1 0 0 1-2 2-3 2-2 0-2 0 0 2 1 2 3 2 3 0zm-64-5c0-1-1-1-1-1-1 0-1 0-1 1 0 0 0 1 1 1l1-1zm-2-8c0-1-5-5-6-5s-1 3 1 4c1 1 5 2 5 1zm55-6c2-1 2-3 2-3 0-1-5 4-5 5s1 0 3-2zm5-9c0-3-1-3-3-1s-2 3 1 3c1 0 2-1 2-2zm32-3c0-1-1-1-1-1-1 0-1 0-1 1 0 0 0 1 1 1l1-1zm-12-5c0-1 1-1 1 0 1 1 2 2 2 1 1-1-2-3-4-3-1 0-1 0-1 2s1 2 2 0zM20 72c2-2 2-2 0-2s-2 0-2 2 0 2 2 0zm74-4h2c1 0 2 0 2 1 0 0 0 1 2 1 1 0 2-1 2-1 0-1-1-2-2-2-2-1-2-3-2-5 0-1-1-2-1-2-1 0-1 0-1 1 0 0-2 1-3 1-2 0-3 0-3 1 0 0 0 1 1 1 0 0 1 1 0 3 0 2 0 3 1 3s2-1 2-2zm-30 0c2-2 2-2 0-2s-4 2-4 3 3 0 4-1zm52-10c0-5-1-8-1-8-1 0-1-1-1-2 0-2-1-2-1-2-1 0-1-1-1-2 0-3-3-3-6 0s-3 4-1 4c1 0 2 1 2 2 1 2 2 4 4 6s3 3 3 6c0 2 0 4 1 4 0 0 1-4 1-8zm-44-1c0-4-1-7-1-7-1 0-1-1-1-2 0-2-1-2-1-2-1 0-1-1-1-2 0-2-1-2-1-2-2 0-2 3 0 4 1 0 1 1 0 1-2 1-2 5 0 5 0 0 1 0 1 2 0 1-1 2-2 2-2 0-2 0-2 2s0 3 2 3c1 0 2 1 2 2 0 0 0 1 2 1 1 0 2-1 2-7zm-48 1c0-2-1-2-2-2-2 0-4-3-4-5 0-1-1-1-1-1-3 0-1 3 2 6 4 4 5 4 5 2zm38-1c0-1-3-3-5-3s-2 0 0 2c1 1 5 2 5 1zm-8-6c1-2 3-3 4-3s2-1 2-1c0-1-2-1-3-1-3 0-3 0-3 2 0 1-1 2-1 2-1 0-1-1-1-2 0-2-1-2-3-2s-3-1-3-1c0-1-1-1-1-1-3 0-1 3 2 6l3 3c1 0 2-1 4-2zm10-3c0-2-1-2-1-2-1 0-1 0-1 2 0 1 0 2 1 2 0 0 1-1 1-2zm-40-2c0-2-3-5-4-4-1 0 0 1 0 1 1 0 2 2 2 3s0 2 1 2c0 0 1-1 1-2zm52-1c0-1 0-1 2-1 1 0 2-1 2-1 0-2-3-2-5 0s-2 3 0 3l1-1zm26-4c0-1-1-1-1-1-1 0-1 0-1 1 0 0 0 1 1 1l1-1zm-78-2c0-1-1-1-1-1-1 0-1 0-1 1 0 0 0 1 1 1l1-1zm80-3c1-1 1-2-2-5s-4-5-4-5c0-2-3-5-4-4-1 0 0 1 0 1 1 0 2 2 2 3s0 2 1 2c0 0 1 0 1 2 0 1 0 2 1 2 0 0 1 0 1 1s1 4 2 4c0 0 1 0 2-1zm-66-1c0-1 0-1 2-1 1 0 2-1 2-2 0-3-3-3-5-1s-2 5 0 5l1-1zm10-2c0-3-1-3-2-3-3 0-3 2-1 4s3 2 3-1zm18 1c2-2 2-2 0-2s-2 0-2 2 0 2 2 0zm48-3c0-1-1-1-1-1-1 0-1-2-1-3 0-3-1-3-2-3-2 0-2 0-2 2 0 1 0 2 1 2 0 0 1 0 1 1 0 2 2 4 3 4 0 0 1-1 1-2zm-86-2c0-1-1-1-1-1-1 0-1 0-1 1 0 0 0 1 1 1l1-1zm90 0c0-1-1-1-1-1-1 0-1 0-1 1 0 0 0 1 1 1l1-1zm-12-6c0-1-8-8-9-7h-1c0 1 2 4 4 4 1 0 2 0 2 2 0 1 0 2 2 2 1 0 2-1 2-1zm16-3c0-2-3-4-5-4s-2 0 1 3c2 3 4 3 4 1zm-98-6c1-1 2-2 2-3s0-1 1-1c0 0 1-1 1-2 0-2-1-2-3-2s-3 0-3 1c0 0 0 1 2 1 1 0 2 0 2 1l-1 1c-1 0-1 0-1 2 0 1-1 2-2 2-2 0-2 0-2 1s2 1 4-1zm78-1c0-1-1-1-1-1-1 0-1 0-1 1 0 0 0 1 1 1l1-1zm22 96c-2-2-2-4-2-7 0-2 0-4 1-4 0 0 1-1 1-2 0-2 2-4 3-4 0 0 1 4 1 10 0 5-1 9-1 9-1 0-2-1-3-2zm0-24c0-1 0-1 1-1 0 0 1 0 1 1l-1 1c-1 0-1-1-1-1zM57 24c-2-2-1-3 1-1l2 2c0 1-2 0-3-1zm52 24c-2-2-1-3 1-1l2 2c0 1-2 0-3-1z" fill="#DCCE58"/><path d="M0 108c0-15 0-20 1-21 1 0 1-1 0-1-2-1-1-6 1-8s3-4 3-4c1-1 1-3 3-4 1-1 2-3 2-9 0-4-1-7-1-7-1 0-1 0-1 1 0 0-1 1-2 1-2 0-2 0-2 1 0 0-1 1-2 1-2 0-2-1-2-29V0h17c10 0 17 0 17 1 0 0-1 1-2 1-2 0-2 0-2 1s3 1 5-2c1-1 2-1 8-1 4 0 7 0 7 1 0 0-2 1-4 1-3 0-4 0-4 1 0 0-1 1-2 1-2 0-2 0-2 1h-2c-2 0-5 3-5 5 0 0 0 2-2 3-1 1-2 2-1 6 0 2 0 5 1 5 0 0 1 0 1 2 0 1 0 2 1 2 0 0 1 0 1 2 0 1 0 2 2 2 1 0 2-1 2-2 0-2 0-2 2-2s4 0 4 1 1 1 1 0c1-2 7-2 9 0 2 1 2 2 0 3-1 1 2 4 5 4 1 0 3 0 3 1 0 0 1 1 1 0 0 0-1-2-2-3-2-2-3-3-4-1 0 0-1 1-1 0-1 0 0-1 0-1 1 0 2-1 2-2-1-2 1-3 2-3 2-1 3-1 4 0 0 0-1 1-2 1-3 0-3 0-1 2 1 2 2 2 2 1s2-1 4-1 3-1 3-2c0-2-1-2-1-2-2 0-2-12 0-13 1 0-2-4-4-4h-1c0-1-1-1-2-1-2 0-2-1-2-1 0-2 3-2 4 0 0 0 1 1 1 0 0 0 0-1-1-2-2-1-3-3-3-4 1-1 3-1 31-1 19 0 30 0 30 1 0 0 0 1 2 1s2 3 0 4c0 0-1 1 0 1 0 1 1 0 1 0 1-2 2-2 3 0 1 1 2 4 2 17 0 10-1 16-1 16-1 0-1 0-1 2 0 1-1 2-1 2-1 0-3-3-3-5 0-1-1-1-1-1-1 0-1-1-1-2 0-2-4-5-7-6-2-1-2-2 0-3 1 0 1-1-1-2-2-2-4-2-4 1 0 1 0 2 1 2 0 0 1 0 1 1s0 3 2 3c1 1 2 3 2 5 0 1 0 3 1 3 0 0 1 0 1 1-1 1 0 3 1 3 2 1 2 3 3 4 0 1 0 2 1 2 0 0 1 2 1 4-1 3 0 6 1 6s1 1 0 1-1 2-1 4c0 1-1 3-1 3-1 0-1 0-1 1 0 0 0 1 2 1 1 0 2-1 2-1 0-1 0-1 2-1 1 0 2 0 2 7 0 4-1 7-1 7-1 0-1-1-1-2 0-2-1-2-2-2-2 0-2-1-2-1 0-1 0-1 2-1 1 0 2-1 2-2 0-2-1-2-1-2-1 0-1 0-1 1 0 0-2 1-3 1-3 0-3 0-3 2 0 1-1 2-1 2-1 0-1 0-1 1 0 0 0 1 2 1 1 0 2 0 2 2-1 2 0 4 1 4s1 1 0 1-2 2-1 4c0 1-1 3-1 3-1 0-1 0-1 2 0 1-1 2-1 2-1 0-1-1-1-2 0-2-1-2-1-2-1 0-1-1-1-2 0-2-3-4-4-4s0 7 1 8c0 0 1 1 0 1 0 0-1 0-2-1-1-2-3-2-5-2-1 0-2-1-2-1 0-1-1-1-1-1-1 0-1 3-1 8 0 4 0 8 1 8 0 0 1 0 1 2 0 1 0 2 1 1 1 0 1 0 1 1-1 1 0 2 3 2s6 2 3 4c-1 0-1 0 1 1 0 0-1 0-2 2-4 2-7 2-4 0 1 0 1-1 0-1s-2-2-2-3c1-1 0-1 0-1-1 0-1 0-1 2 0 1-1 2-1 2-1 0-1-1-1-2 0-2-1-2-1-2-1 0-1-1-1-2-1-1-1-2-2-2s-1 0 0 0c2-1 2-4 1-4s-1 0-1 1c0 0-2 1-3 1-2 0-3 0-3 1 0 0 0 1 2 1 1 0 2 0 2 1-1 1 0 3 1 3 0 0 1 1 0 1 0 1-1 0-1 0-1-2-4-2-4 0 0 0 0 1 1 1 0 0 1 0 1 1s0 3 2 4c1 0 2 2 2 3s-2 2-11 2c-8 0-11-1-12-2-2-2-2-6 0-6 0 0 1-4 1-9 0-6-1-9-1-9-1 0-1-1-1-2 0-2-3-5-4-4s-1 22 1 22c0 0 1 1 1 3 0 1-1 3-1 3-1 0-1-2-1-3 0-2-1-3-1-3-1 0-1-2-1-5 0-2-1-3-1-3-1 0-1 3-1 5s0 5 1 5c0 0 1 2 1 4v4H0v-20zm30 5c0-1-1-1-1-1-1 0-1 0-1 1 0 0 0 1 1 1l1-1zm-2-8c0-1-5-5-6-5s-1 3 1 4c1 1 5 2 5 1zm66-1c1-1 2-3 2-4 0-2-1-2-4-2-4 0-4 0-4 2 0 1 0 2 2 2 1 0 2 0 2 2s0 2 2 0zm-11-5c2-1 2-3 2-3 0-1-5 4-5 5s1 0 3-2zm5-10c0-2-1-2-3 0-1 1-1 2-1 3 1 1 1 1 2 0s2-2 2-3zm20 1c0-2 0-2 1-2 0 0 1-1 1-2s0-3 1-3 1-1-1-2c-2-2-4-2-4 1 0 2-1 4-3 5-1 1-1 2 0 3 2 2 5 2 5 0zm12-3c0-1-1-1-1-1-1 0-1 0-1 1 0 0 0 1 1 1l1-1zm-4-13c0-2-1-2-1-2-1 0-1 0-1 2 0 1 0 2 1 2 0 0 1-1 1-2zm-96-2c2-2 2-2 0-2s-2 0-2 2 0 2 2 0zm72 0c0-1 0-2 1-3 1-2 2-2 3 0 2 2 3 3 6 3h4v-8c0-5-1-8-1-8-1 0-1-1-1-2 0-2-1-2-1-2-1 0-1-1-1-2 0-2-3-5-4-4-1 0 0 1 0 1 1 0 2 1 2 3 0 1 0 2 1 2s-8 10-10 10c-1 0-1-1-1-1 0-1-1-1-1-1-2 0-2 3 1 5 1 1 2 2 1 2-2 1-2 7 0 7 0 0 1-1 1-2zm-28-4c2-2 2-2 0-2s-4 2-4 3 3 0 4-1zm52-2c2-2 2-12 1-12s-1-2-1-3c0-2-1-3-1-3-1 0-1-1-1-2 0-2-1-2-1-2-1 0-1-1-1-2 0-2-1-2-2-2-2 0-2 0-2 1 0 0-1 1-2 1-2 0-2-1-2-1 0-1-1-1-2-1-2 0-2 0-2 1v1c1 0 2 1 3 3 0 1 1 3 2 3 0 0 1 0 1 2 0 1 0 2 1 2 0 0 1 0 1 1s0 3 2 4c1 0 2 2 2 4 0 1 0 3 1 3 0 0 1 0 1 2s0 2 2 0zm-44-9c0-4-1-7-1-7-1 0-1-1-1-2 0-2-1-2-1-2-1 0-1-1-1-2 0-2-1-2-1-2-2 0-2 3 0 4 1 0 1 1 0 1-2 1-2 5 0 5 0 0 1 0 1 2 0 1-1 2-2 2-2 0-2 0-2 2s0 3 2 3c1 0 2 1 2 2 0 0 0 1 2 1 1 0 2-1 2-7zm-48 1c0-2-1-2-2-2-2 0-4-3-4-5 0-1-1-1-1-1-3 0-1 3 2 6 4 4 5 4 5 2zm38-1c0-1-3-3-5-3s-2 0 0 2c1 1 5 2 5 1zm-8-6c1-2 3-3 4-3s2-1 2-1c0-1-2-1-3-1-3 0-3 0-3 2 0 1-1 2-1 2-1 0-1-1-1-2 0-2-1-2-3-2s-3-1-3-1c0-1-1-1-1-1-3 0-1 3 2 6l3 3c1 0 2-1 4-2zm10-3c0-2-1-2-1-2-1 0-1 0-1 2 0 1 0 2 1 2 0 0 1-1 1-2zm-40-2c0-2-3-5-4-4-1 0 0 1 0 1 1 0 2 2 2 3s0 2 1 2c0 0 1-1 1-2zm52-1c0-1 0-1 2-1 1 0 2-1 2-1 0-2-3-2-5 0s-2 3 0 3l1-1zm-52-6c0-1-1-1-1-1-1 0-1 0-1 1 0 0 0 1 1 1l1-1zm80-3c1-1 1-2-2-5s-4-5-4-5c0-2-3-5-4-4-1 0 0 1 0 1 1 0 2 2 2 3s0 2 1 2c0 0 1 0 1 2 0 1 0 2 1 2 0 0 1 0 1 1s1 4 2 4c0 0 1 0 2-1zm-66-1c0-1 0-1 2-1 1 0 2-1 2-2 0-3-3-3-5-1s-2 5 0 5l1-1zm10-2c0-3-1-3-2-3-3 0-3 2-1 4s3 2 3-1zm18 1c2-2 2-2 0-2s-2 0-2 2 0 2 2 0zm-38-5c0-1-1-1-1-1-1 0-1 0-1 1 0 0 0 1 1 1l1-1zm90 0c0-1-1-1-1-1-1 0-1 0-1 1 0 0 0 1 1 1l1-1zm-12-6c0-1-8-8-9-7h-1c0 1 2 4 4 4 1 0 2 0 2 2 0 1 0 2 2 2 1 0 2-1 2-1zm16-3c0-2-3-4-5-4s-2 0 1 3c2 3 4 3 4 1zm-98-6c1-1 2-2 2-3s0-1 1-1c0 0 1-1 1-2 0-2-1-2-3-2s-3 0-3 1c0 0 0 1 2 1 1 0 2 0 2 1l-1 1c-1 0-1 0-1 2 0 1-1 2-2 2-2 0-2 0-2 1s2 1 4-1zm78-1c0-1-1-1-1-1-1 0-1 0-1 1 0 0 0 1 1 1l1-1zm24 94c0-1 0-1 1-1 0 0 1 0 1 1l-1 1c-1 0-1-1-1-1zm-2-22c0-1 0-1 1-1 0 0 1 0 1 1l-1 1c-1 0-1-1-1-1zm2-26c0-2 0-3 1-3 0 0 1 1 1 3 0 1-1 3-1 3-1 0-1-2-1-3zM57 24c-2-2-1-3 1-1l2 2c0 1-2 0-3-1z" fill="#CEA75E"/><path d="M0 108c0-15 0-20 1-21 1 0 1-1 0-1-2-1-1-6 1-8s3-4 3-4c1-1 1-3 3-4 1-1 2-3 2-9 0-4-1-7-1-7-1 0-1 0-1 1 0 0-1 1-2 1-2 0-2 0-2 1 0 0-1 1-2 1-2 0-2-1-2-2 0-2 0-2 1-3 2 0 5-2 4-3 0-1-1 0-1 0 0 1-2 2-3 2s-1-1-1-10c0-6 0-10 1-10 0 0 1-1 1-2 0-2-1-2-1-2-1 0-1-6-1-14V0h17c10 0 17 0 17 1 0 0 1 1 3 1 1 0 3-1 3-1 0-1 2-1 5-1 2 0 5 0 5 1 0 0-2 1-4 1-3 0-4 0-4 1h-3c-3 0-7 4-8 7 0 0-1 2-3 4s-3 3-2 3 1 2 1 5c1 2 1 4 2 4 0 0 1 0 1 1 0 0-1 1-2 1-3 0-3 0-1 2 1 2 2 2 2 1 1-1 2-1 4 1 1 1 2 3 3 4 0 1 2 4 4 4 1 0 2 0 2 2 0 1 0 2 1 2 0 0 1 0 1 2 0 1 0 2 1 2 0 0 1 0 1 2 0 1 0 2 1 2s3 0 3 1 1 0 2-1 3-2 4-2 2-1 2-2c0 0 1-1 1 0 1 0 0 1 0 1-2 1-2 3 1 3 1 0 2-1 2-1 0-1 0-1 2-1 1 0 2 0 2 3 0 2-1 3-3 3s-3-1-3-1c0-1-1-1-2-1-3 0-3 2-1 4 1 1 2 2 4 2 1 0 3 1 5 3 4 5 6 4 6-6 0-6-1-9-1-9-1 0-1-1-1-2s-1-2-2-3c-1-2-2-2-3 0-2 3-7 3-8 1 0-1-1 0-2 1l-2 3-2-2c-1-2-3-2-5-2s-2-1-2-2c-1-1-1-3-2-3s-1-1 1-2c2-2 4-2 5 0 0 0 1 1 1 0 1 0 0-1 0-1-2-1-2-5 0-7s3-2 3 1 2 6 5 6c1 0 3 0 3 1 0 0 1 1 1 0 1 0 0-1 0-1-2-1-2-4-1-4s2 0 2 1c3 3 10 3 10 1-1-1 0-3 1-3 0 0 1-1 0-1 0 0-1 0-2 1-2 2-3 3-3 2 0 0 1-2 3-4s3-3 2-3c-1-1-1-3-1-6 0-2-1-4-1-4-1 0-1-1-2-2 0-1-2-4-5-7-8-7-7-7 27-7 18 0 29 0 29 1 0 0 0 1 2 1s2 3 0 4c0 0-1 1 0 1 0 1 1 0 1 0 1-2 2-2 3 0 2 2 2 31 0 33s-4 2-4 0-1-2-1-2c-1 0-1-1-1-2 0-2-1-2-1-2-1 0-1-2-1-3 0-3-1-3-2-3s-3-1-3-2c-1-2-3-2-4-2-2-1-2 5 1 7 1 0 1 2 2 3 0 1 0 2 1 2 0 0 1 0 1 2 0 1 0 2 1 2 0 0 1 0 1 1-1 1 0 3 1 3 2 1 2 3 3 4 0 1 0 2 1 2 0 0 1 3 1 8 0 4-1 8-1 8-1 0-1 1-1 3 0 3-3 4-5 1-2-1-2-2 0-3 2-2 3-3 3-8 0-3-1-5-1-5-1 0-1-2-1-3 0-2-1-3-1-3-1 0-1-1-1-2 0-2-1-2-1-2-1 0-1-1-1-2 0-2-1-2-2-2-2 0-2 0-2 1 0 0-1 1-2 1-2 0-2-1-2-1 0-1-1-1-2-1-2 0-2 0-2 1 0 0 0 1 0 0 1 0 2 2 3 3 0 2 1 4 2 4 0 0 1 0 1 2 0 1 0 2 1 2 0 0 1 0 1 1-1 1 0 3 1 4 2 0 2 2 2 4 0 1 1 3 2 3s1 1 0 1c-2 1-2 5 0 5 0 0 1 1 1 3 0 1 0 3 1 3l1-1c0-1 0-1 1-1 0 0 1 0 1 2 0 1-1 2-1 2-1 0-1 1-1 3 0 1-1 3-1 3-1 0-1-1-1-2h-1c-1 0-2 0-3-1s-2-1-3-1-1-1-1-1c0-1-1-1-2-1-3 0-3 1 0 3 2 1 2 3-1 6s-3 3-3 1-3-4-4-4v3c0 1 0 3 1 3 0 0 1 1 1 4 0 2-1 4-2 3h-5c-3 0-3 1-3 3 0 1 0 2 1 2s2 0 2 1 1 3 1 3c0 1 0 2-2 2-2 1-2 1 0 3 1 1 2 2 1 2-2 1-2 8 1 10 1 0 2 2 2 3s-2 2-10 2c-10 0-10-1-10-2 0-2-1-2-1-2-1 0-1-1-1-2 0-3 1-3 2-1 0 0 1 1 1 0 1 0 0-1 0-1-1-1-2-3-1-10 0-5-1-8-1-8-1 0-1-1-1-2 0-2-3-5-4-4s-1 22 1 22c0 0 1 1 1 3 0 1-1 3-1 3-1 0-1-2-1-3 0-2-1-3-1-3-1 0-1-2-1-5 0-2-1-3-1-3-1 0-1 3-1 5s0 5 1 5c0 0 1 2 1 4v4h-9c-9 0-9-1-9-2 0-2-1-2-1-2-1 0-1 0-1 2 0 1-1 2-23 2H0v-20zm30 5c0-1-1-1-1-1-1 0-1 0-1 1 0 0 0 1 1 1l1-1zm-2-7c0-2-7-9-8-8-1 0 0 1 0 1 1 0 2 1 2 2 0 2 3 6 5 6 0 0 1 0 1-1zm57-7c3-3 3-5 1-6-1 0-1-1 0-1 2-1 2-6 1-6s-1 0-1 2c0 1-1 2-1 2-1 0-1 1-1 3 0 1-1 3-1 3-1 0-1 0-1 2 0 1-1 2-1 2-1 0-1 0-1 1s3 1 5-2zM18 81c0-1-1-1-1-1-1 0-1 0-1 1 0 0 0 1 1 1l1-1zm90-8c0-1-1-2-2-1-1 0-1-2-1-8 1-6 0-8 0-8-1 0-1-1-1-2 0-2-1-2-1-2-1 0-1-1-1-2 0-2-3-5-4-4-1 0 0 1 0 1 1 0 2 1 2 3 0 1 0 2 1 2s-8 10-10 10c-1 0-1-1-1-1 0-1-1-1-1-1-2 0-2 3 1 5 1 1 2 2 1 2-2 1-2 7 0 7 0 0 1-1 1-2s0-2 1-3c1-2 2-2 3 0s3 3 4 3c0 0 2 0 3 2s5 2 5-1zm-88-1c2-2 2-2 0-2s-2 0-2 2 0 2 2 0zm44-4c2-2 2-2 0-2s-4 2-4 3 3 0 4-1zM24 58c0-1-9-10-10-10-2 0 0 3 4 7 4 5 6 5 6 3zm6-7l-4-4c-2-2-3-3-1-4 0 0 1-1 0-1 0-1-1 0-1 0 0 1-1 2-2 2s-1-4 1-5c0 0 1-1 0-1 0 0-2 0-3 2l-3 2 5 5c3 4 8 6 8 4zm44-4c0-1 0-1 1-1 2 0 5-3 5-5 0-1-1-1-2-1-2 0-2 0-2 1 0 0-1 1-2 1-2 0-2 0-2 3 0 1 0 3 1 3l1-1zm-42-9c0-2-1-2-2-2-2 0-2 0-2 2 0 1 0 2 2 2 1 0 2-1 2-2zm76-1c0-1-1-1-1-1-1 0-1-1-1-2 0-2-3-5-5-4-1 0-1-1-1-2 0-2-5-7-6-6-1 0 0 1 0 1 1 0 2 2 2 3s0 2 1 2c0 0 1 0 1 2 0 1 0 2 1 2 0 0 1 0 1 1s0 2 1 3c1 2 7 2 7 1zm-2-14c0-1-8-8-9-7-2 0-2 0 2 4 3 3 7 5 7 3zm10 0c0-1-1-1-1-1-1 0-1 0-1 1 0 0 0 1 1 1l1-1zm-38-2c0-1-1-1-1-1-1 0-1 0-1 1 0 0 0 1 1 1l1-1zm8 0c0-1-1-1-2-1-2 0-2 0-2 1 0 0 0 1 2 1 1 0 2-1 2-1zm36-1c0-2-3-4-5-4s-2 0 1 3c2 3 4 3 4 1zm-98-4c0-2 0-2 1-2 0 0 1-1 1-2s0-3 2-3c3-3 2-3-3-3-3 0-5 0-5 1 0 0 0 1 2 1 1 0 2 0 2 1s-1 3-2 4c-2 0-2 2-2 3s0 2 2 2c1 0 2-1 2-2zm78-5c0-2-4-2-4 1-1 1 0 2 1 2 2 0 3-1 3-3zM68 4c0-2-1-2-1-2-1 0-1 0-1 2 0 1 0 2 1 2 0 0 1-1 1-2zM34 3c0-1-2-1-3-1-2 0-3 0-3 1 0 0 1 1 3 1 1 0 3-1 3-1zm60 104c0-1 0-1 1-1 0 0 1 0 1 1l-1 1c-1 0-1-1-1-1zm14-16c0-1 0-1 1-1 0 0 1 0 1 1l-1 1c-1 0-1-1-1-1zm3-3c-2-1-2-4-1-4s4 2 4 4-2 2-3 0zm15-15c0-1-1-1-2-1-2 0-2-1-2-1 0-1 0-1 2-1 1 0 2-1 2-1 0-1 0-1 1-1 0 0 1 1 1 3 0 1-1 3-1 3-1 0-1-1-1-1zm0-15c0-1 0-2 1-2 0 0 1 1 1 2s-1 3-1 3c-1 0-1-2-1-3z" fill="#40BAC1"/><path d="M0 108c0-15 0-20 1-21 1 0 1-1 0-1-2-1-1-6 1-8s3-4 3-4c1-1 1-3 3-4 1-1 2-3 2-9 0-4-1-7-1-7-1 0-1 0-1 1 0 0-1 1-2 1-2 0-2 0-2 1 0 0-1 1-2 1-2 0-2-1-2-2 0-2 0-2 1-3 2 0 5-2 4-3 0-1-1 0-1 0 0 1-2 2-3 2s-1-1-1-10c0-6 0-10 1-10 0 0 1-1 1-2 0-2-1-2-1-2-1 0-1-6-1-14V0h16c10 0 16 0 16 1 0 0-1 1-2 1-2 0-2 0-2 1 0 0 1 1 3 1 1 0 3-1 3-1 0-1 1-1 4-1 2 0 4 0 4 1h-3c-3 0-7 4-8 7 0 0-1 2-3 4s-3 3-2 3 1 2 1 5c1 2 1 4 2 4 0 0 1 0 1 1 0 0-1 1-2 1-3 0-3 0-1 2 1 2 2 2 2 1 1-1 2-1 4 1 1 1 2 3 3 4 0 1 2 4 4 4 1 0 2 0 2 2 0 1 0 2 1 2 0 0 1 0 1 2 0 1 0 2 1 2 0 0 1 0 1 2 0 1 0 2 1 2s3 0 3 1 1 0 2-1 3-2 4-2 2-1 2-2c0 0 1-1 1 0 1 0 0 1 0 1-2 1-2 3 1 3 1 0 2-1 2-1 0-1 0-1 2-1 1 0 2 0 2 3 0 2-1 3-3 3s-3-1-3-1c0-1-1-1-2-1-3 0-3 2-1 4 1 1 2 2 4 2 1 0 3 1 5 3 4 5 6 4 6-6 0-6-1-9-1-9-1 0-1-1-1-2s-1-2-2-3c-1-2-2-2-3 0-2 3-7 3-8 1 0-1-1 0-2 1l-2 3-2-2c-1-2-3-2-5-2s-2-1-2-2c-1-1-1-3-2-3s-1-1 1-2c2-2 4-2 5 0 0 0 1 1 1 0 1 0 0-1 0-1-2-1-2-5 0-7s3-2 3 1 2 6 5 6c1 0 3 0 3 1 0 0 1 1 1 0 1 0 0-1 0-1-2-1-2-4-1-4s2 0 2 1c3 3 10 3 10 1-1-1 0-3 1-3 0 0 1-1 0-1 0 0-1 0-2 1-2 2-3 3-3 2 0 0 1-2 3-4s3-3 2-3-1-2-1-5v-3h6c3 0 6-1 6-1 0-1 2-1 5-1 5 0 6 0 10 4 2 2 4 4 5 4 2 0 2-1-3-6l-4-4H86c-6 0-10-1-10-1 0-1-1-1-2-1-2 0-2-1-2-2 0-2-1-2-2-2-2 0-2-1-2-3 0-3-2-5-3-2 0 1-1 1-2-1-1-1-1-2-1-2h54v3c0 1-1 3-1 3-1 0-1 0-1 2 0 1-1 2-1 2-1 0-1 1-1 3 0 1 0 3 1 3 0 0 1 1 1 4 0 2 0 4 1 4 0 0 1 0 1 2s-2 2-3 0-3-2-4-2c-2-1-2 5 1 7 1 0 1 2 2 3 0 1 0 2 1 2 0 0 1 0 1 2 0 1 0 2 1 2 0 0 1 0 1 1-1 1 0 3 1 3 2 1 2 3 3 4 0 1 0 2 1 2 0 0 1 3 1 8 0 4-1 8-1 8-1 0-1 1-1 3 0 3-3 4-5 1-2-1-2-2 0-3 2-2 3-3 3-8 0-3-1-5-1-5-1 0-1-2-1-3 0-2-1-3-1-3-1 0-1-1-1-2 0-2-1-2-1-2-1 0-1-1-1-2 0-2-1-2-2-2-2 0-2 0-2 1 0 0-1 1-2 1-2 0-2-1-2-1 0-1-1-1-2-1-2 0-2 0-2 1 0 0 0 1 0 0 1 0 2 2 3 3 0 2 1 4 2 4 0 0 1 0 1 2 0 1 0 2 1 2 0 0 1 0 1 1-1 1 0 3 1 4 2 0 2 2 2 4 0 1 1 3 2 3s1 1 0 1c-2 1-2 5 0 5 0 0 1 1 1 3 0 1 0 3 1 3l1-1c0-1 0-1 1-1 0 0 1 0 1 2 0 1-1 2-1 2-1 0-1 1-1 3 0 1-1 3-1 3-1 0-1-1-1-2h-1c-1 0-2 0-3-1s-2-1-3-1-1-1-1-1c0-1-1-1-2-1-3 0-3 1 0 3 2 1 2 3-1 6s-3 3-3 1-3-4-4-4v3c0 1 0 3 1 3 0 0 1 1 1 4 0 2-1 4-2 3h-5c-3 0-3 1-3 3 0 1 0 2 1 2s2 0 2 1 1 3 1 3c0 1 0 2-2 2-2 1-2 1 0 3 1 1 2 2 1 2-2 1-2 8 1 10 1 0 2 2 2 3s-2 2-10 2c-10 0-10-1-10-2 0-2-1-2-1-2-1 0-1-1-1-2 0-3 1-3 2-1 0 0 1 1 1 0 1 0 0-1 0-1-1-1-2-3-1-10 0-5-1-8-1-8-1 0-1-1-1-2 0-2-3-5-4-4s-1 22 1 22c0 0 1 1 1 3 0 1-1 3-1 3-1 0-1-2-1-3 0-2-1-3-1-3-1 0-1-2-1-5 0-2-1-3-1-3-1 0-1 3-1 5s0 5 1 5c0 0 1 2 1 4v4h-9c-9 0-9-1-9-2 0-2-1-2-1-2-1 0-1 0-1 2 0 1-1 2-23 2H0v-20zm30 5c0-1-1-1-1-1-1 0-1 0-1 1 0 0 0 1 1 1l1-1zm-2-7c0-2-7-9-8-8-1 0 0 1 0 1 1 0 2 1 2 2 0 2 3 6 5 6 0 0 1 0 1-1zm57-7c3-3 3-5 1-6-1 0-1-1 0-1 2-1 2-6 1-6s-1 0-1 2c0 1-1 2-1 2-1 0-1 1-1 3 0 1-1 3-1 3-1 0-1 0-1 2 0 1-1 2-1 2-1 0-1 0-1 1s3 1 5-2zM18 81c0-1-1-1-1-1-1 0-1 0-1 1 0 0 0 1 1 1l1-1zm92-4c0-1-1-1-1-1-1 0-1-1-1-3 0-1-1-2-2-1-1 0-1-2-1-8 1-6 0-8 0-8-1 0-1-1-1-2 0-2-1-2-1-2-1 0-1-1-1-2 0-2-3-5-4-4-1 0 0 1 0 1 1 0 2 1 2 3 0 1 0 2 1 2s-8 10-10 10c-1 0-1-1-1-1 0-1-1-1-1-1-2 0-2 3 1 5 1 1 2 2 1 2-2 1-2 7 0 7 0 0 1-1 1-2s0-2 1-3c1-2 2-2 3 0s3 3 4 3c0 0 2 0 3 2 0 1 2 2 3 2s2 0 2 1c0 0 0 1 1 1l1-1zm-90-5c2-2 2-2 0-2s-2 0-2 2 0 2 2 0zm44-4c2-2 2-2 0-2s-4 2-4 3 3 0 4-1zM24 58c0-1-9-10-10-10-2 0 0 3 4 7 4 5 6 5 6 3zm6-7l-4-4c-2-2-3-3-1-4 0 0 1-1 0-1 0-1-1 0-1 0 0 1-1 2-2 2s-1-4 1-5c0 0 1-1 0-1 0 0-2 0-3 2l-3 2 5 5c3 4 8 6 8 4zm44-4c0-1 0-1 1-1 2 0 5-3 5-5 0-1-1-1-2-1-2 0-2 0-2 1 0 0-1 1-2 1-2 0-2 0-2 3 0 1 0 3 1 3l1-1zm-60-4c0-1-1-1-1-1-1 0-1 0-1 1 0 0 0 1 1 1l1-1zm18-5c0-2-1-2-2-2-2 0-2 0-2 2 0 1 0 2 2 2 1 0 2-1 2-2zm76-1c0-1-1-1-1-1-1 0-1-1-1-2 0-2-3-5-5-4-1 0-1-1-1-2 0-2-5-7-6-6-1 0 0 1 0 1 1 0 2 2 2 3s0 2 1 2c0 0 1 0 1 2 0 1 0 2 1 2 0 0 1 0 1 1s0 2 1 3c1 2 7 2 7 1zM78 21c0-1-1-1-1-1-1 0-1 0-1 1 0 0 0 1 1 1l1-1zm8 0c0-1-1-1-2-1-2 0-2 0-2 1 0 0 0 1 2 1 1 0 2-1 2-1zm-62-5c0-2 0-2 1-2 0 0 1-1 1-2s0-3 2-3c3-3 2-3-3-3-3 0-5 0-5 1 0 0 0 1 2 1 1 0 2 0 2 1s-1 3-2 4c-2 0-2 2-2 3s0 2 2 2c1 0 2-1 2-2zm78-5c0-2-4-2-4 1-1 1 0 2 1 2 2 0 3-1 3-3zm-8 96c0-1 0-1 1-1 0 0 1 0 1 1l-1 1c-1 0-1-1-1-1zm14-16c0-1 0-1 1-1 0 0 1 0 1 1l-1 1c-1 0-1-1-1-1zm18-18c0-1-1-1-2-1-2 0-2-1-2-1 0-1 0-1 2-1 1 0 2-1 2-1 0-1 0-1 1-1 0 0 1 1 1 3 0 1-1 3-1 3-1 0-1-1-1-1zm0-15c0-1 0-2 1-2 0 0 1 1 1 2s-1 3-1 3c-1 0-1-2-1-3zm-4-18c0-2-1-2-1-2-1 0-1-1-1-2 0-2-1-2-1-2-1 0-1-2-1-3 0-2 1-4 4-7 2-2 4-4 4-6 0-1 0-2 1-2s1 22-1 24-4 2-4 0z" fill="#E09F2A"/><path d="M0 109c0-12 0-19 1-19s1-6-1-7v-1c1 0 2-2 2-3s0-1 2-1c3 0 4-1 5-3 2-6 6-3 6 3 0 2 1 4 2 4 0 0 1-2 1-4 0-3 0-4 2-5 2-2 2-3 0-3-1 0-3-1-3-2s-1-1-1 0-2 2-4 2h-2v-8c0-5-1-8-1-8-1 0-1 0-1 1 0 0-1 1-2 1-2 0-2 0-2 1 0 0-1 1-2 1-2 0-2-1-2-2 0-2 0-2 1-3 2 0 5-2 4-3 0-1-1 0-1 0 0 1-2 2-3 2s-1-1-1-10c0-6 0-10 1-10 0 0 1-1 1-2 0-2-1-2-1-2-1 0-1-6-1-14V0h16c10 0 16 0 16 1 0 0-1 1-2 1-2 0-2 0-2 1 0 0 1 1 3 1 1 0 3-1 3-1 0-1 1-1 4-1 2 0 4 0 4 1h-3c-3 0-7 4-8 7 0 0-1 2-3 4s-3 3-2 3 1 2 1 5c1 2 1 4 2 4 0 0 1 0 1 1 0 0-1 1-2 1-3 0-3 0-1 2 1 2 2 2 2 1 1-1 2-1 4 1 1 1 2 3 3 4 0 1 2 4 4 4 1 0 2 0 2 2 0 1 0 2 1 2 0 0 1 0 1 2 0 1 0 2 1 2 0 0 1 0 1 2 0 1 0 2 1 2s3 0 3 1 1 0 2-1 3-2 4-2 2-1 2-2c0 0 1-1 1 0 1 0 0 1 0 1-2 1-2 3 1 3 1 0 2-1 2-1 0-1 0-1 2-1 1 0 2 0 2 3 0 2-1 3-3 3s-3-1-3-1c0-1-1-1-2-1-3 0-3 2-1 4 1 1 2 2 4 2 1 0 3 1 5 3 4 5 6 4 6-6 0-6-1-9-1-9-1 0-1-1-1-2s-1-2-2-3c-1-2-2-2-3 0-2 3-7 3-8 1 0-1-1-1-1 0-1 2-6 2-6 1s-2-1-3-1c-3 0-3-1-3-2-1-1-1-3-2-3s-1-1 1-2c2-2 4-2 5 0 0 0 1 1 1 0 1 0 0-1 0-1-2-1-2-5 0-7s3-2 3 3c0 3 0 4 3 4s5 0 5 1c0 0 1 1 1 0 1 0 0-1 0-1-2-1-2-4-1-4s2 0 2 1c3 3 10 3 10 1 0-3-2-3-3-1 0 0-1 1-1 0 0 0 1-2 3-4s3-3 2-3-1-2-1-5v-3h6c3 0 6-1 6-1 0-1 2-1 5-1 5 0 6 0 10 4s7 5 7 2c0-2-1-2-2-2s-3-2-5-4-2-3-13-3H76c0-1-1-1-2-1-2 0-2-1-2-2 0-2-1-2-2-2-2 0-2-1-3-2 0-2 3-4 5-4 1 0 2-1 2-1 0-1 2-1 6-1s6 0 6 1-1 2-1 2c-1 0-1 1-1 3 0 3 0 4 2 4 1 0 2 0 2 1 0 0 1 1 3 1 1 0 3-1 3-1 0-1 0-1 2-1 1 0 2 0 2 2 0 1 0 2 1 2 2 0 9 6 9 8-1 1-1 2-2 2s-1 1 0 1 1 1 2 2c0 1 0 3 2 4 1 0 1 2 2 3 0 1 0 2 1 2 0 0 1 1 1 2-1 2 0 4 1 5 2 0 2 2 3 3 0 1 0 2 1 2 0 0 1 1 1 3 0 1 0 3 1 3 0 0 1 2 1 6 0 3-1 6-1 6-1 0-1 1-1 3s-1 3-2 3c-2 0-2-1-2-2 0-2 0-2 1-2 0 0 1-4 1-9 0-8-1-9-2-10-2-1-2-3-2-4s-1-1-1-1c-1 0-1-1-1-2 0-2-1-2-2-2-2 0-2 0-2 1 0 0-1 1-2 1-2 0-2-1-2-1 0-1-1-1-2-1-2 0-2 0-2 1 0 0 0 1 1 1 0 0 1 0 1 2 0 1 0 2 1 2 0 0 1 0 1 2 0 1 0 2 1 2 0 0 1 0 0 0-1 1-4-1-3-2 0-2-3-5-5-5-1 1-2 0-2-1 0 0-1-1-1 0-1 0 0 1 0 1 2 1 2 4 0 7-3 3-3 8-1 8 0 0 1 0 1 2 0 1-1 2-2 2-2 0-2-1-2-1 0-1-1-1-2-1h-2c0 1 0 2 2 3s2 7 1 7-1 1-1 4v4c1-1 4-3 4-5s0-2 1 0v-2c1-4 1-4 4-1 0 1 2 2 3 2 0 0 2 0 3 2 0 1 2 2 3 2s2 0 2 1c0 0 1 1 1 0 1 0 0-1 0-1-1 0-1-1-1-2 0-2-1-3-2-3s-1-1 1-2c2-2 3-2 3 0-1 1 0 3 2 3 2 1 2 3 0 4 0 0-1 1 0 1 0 0 1 0 2-1 3-3 4-3 4 0 0 1-1 2-1 2-1 0-1 1-1 3 0 1-1 3-1 3-1 0-1-1-1-2h-1c-1 0-2 0-3-1s-2-1-3-1-1-1-1-1c0-1-1-1-2-1-3 0-3 1 0 3 1 0 2 2 2 2 0 2-5 7-6 7v-4c0-3-1-4-2-4-2-1-5-4-4-4 2-1 2-2 0-2s-2 0-2 2c0 1 0 2 1 2 0 0 1 1 1 3 0 1 0 3 1 3 0 0 1 0 1 2 0 1-1 2-1 2-2 0-2 3 0 4 2 0-2 4-5 4-2 0-2 0-2 2 0 1 0 2 1 2 0 0 1 0 1 2 0 1 0 2 1 2s2 0 2 1c0 0-3 1-5 1s-4 0-4 1c0 0 0 1 2 1 1 0 2 0 2 1 0 0 0 1 1 1s2 0 2 1c0 0-1 1-2 1s-1 0-1 2c0 1 0 2 1 2 0 0 1 0 1 1s0 3 2 4c1 0 2 2 2 3s-2 2-10 2H74v-3-3c1 0 1-3 1-6 0-4 1-6 2-7 1 0 1-1 0-2-2 0-2-1-1-1s2-2 2-5c0-2 0-3 1-3s1-11-1-13-2-2-2 0c0 1 0 3 1 3 0 0 1 1 0 1-1 1-3-2-3-4s-1-2-1-2c-1 0-1 1-1 3s-1 4-1 4c-1 0-1-1-1-1 0-1-1-1-2-1v1c0 1 0 2-1 2-2 1-2 2-2 4 1 1 0 3 0 3-1 0-1-1-1-2 0-2-1-2-1-2-1 0-1-1-1-2 0-2-1-2-1-2-1 0-1 1-1 3 0 1 0 3 1 3 0 0 1 2 1 5 0 2-1 5-1 5-1 0-1-2-1-3 0-2-1-3-1-3-1 0-1-2-1-4 0-3-1-4-1-4-1 0-2-2-2-4v-1c-2 1-2 12 0 12 0 0 1 2 1 5s-1 6-1 6c-2 1-2 8 0 8l1-1c0-1 0-1 1-1 0 0 1 0 1 2 0 1 0 2 1 2 0 0 1 1 1 4v4h-6c-6 0-6-1-6-2 0-2-1-2-1-2-1 0-1 0-1 2 0 1-1 2-23 2H0v-19zm42 10c0-1-1-1-1-1-1 0-1 0-1 1 0 0 0 1 1 1l1-1zm-12-6c0-1-1-1-1-1-1 0-1 0-1 1 0 0 0 1 1 1l1-1zm-2-7c0-2-7-9-8-8-1 0 0 1 0 1 1 0 2 1 2 2 0 2 3 6 5 6 0 0 1 0 1-1zm57-7c3-3 3-5 1-6-1 0-1-1 0-1 2-1 2-6 1-6s-1 0-1 2c0 1-1 2-1 2-1 0-1 1-1 3 0 1-1 3-1 3-1 0-1 0-1 2 0 1-1 2-1 2-1 0-1 0-1 1s3 1 5-2zm-55-9l2-2c0-1 2-4 6-7 3-4 6-7 6-8s0-2 1-2c0 0 1-1 0-1 0 0-1 0-2 1-1 2-3 3-3 3-2 0-4 2-4 4 0 0-1 2-2 3-2 0-2 2-2 3s-1 2-1 2c-1 0-1 0-1 2 0 1-1 2-1 2-1 0-1 0-1 1s0 1 2-1zm36 0c0-1-1-2-1-2-1 0-1 0-1 1 0 2 0 3 1 3 0 0 1-1 1-2zm-6-7c0-3-1-5-1-5-1 0-1 2-1 5 0 2 0 5 1 5 0 0 1-3 1-5zm12-4c0-1-1-1-1-1-1 0-1 0-1 1 0 0 0 1 1 1l1-1zm-22-7c1-1 2-3 2-6 0-2 0-4 1-4 0 0 1-1 1-2 0-2-1-2-1-2-1 0-1 0-1 2 0 1-1 2-1 2-1 0-1 2-1 5 0 2-1 5-1 5-1 0-1 0-1 1s0 1 2-1zm26-1c0-1-1-1-1-1-1 0-1 0-1 1 0 0 0 1 1 1l1-1zm-34-2c0-1-1-1-1-1-1 0-1 0-1 1 0 0 0 1 1 1l1-1zm22-1c2-2 2-2 0-2s-4 2-4 3 3 0 4-1zm-26-3c0-1-1-1-1-1-1 0-1 0-1 1 0 0 0 1 1 1l1-1zm-18-3c0-1-1-3-2-3 0 0-1-1 0-1 0-1 1 0 1 0 1 2 5 2 5 0s-9-11-11-10c0 1 0 2 2 4 3 3 3 5 1 6-1 0-1 1 0 1s2 2 2 3 0 2 1 2c0 0 1-1 1-2zm62 0c-1-1-2-1-3-2 0 0-1-1-1 0-1 1 3 3 4 3 2-1 2-1 0-1zm0-6c0-2-1-2-1-2-1 0-1 0-1 2 0 1 0 2 1 2 0 0 1-1 1-2zm-46-1c0-1-1-1-2-1-2 0-2 0-2 1 0 0 0 1 2 1 1 0 2-1 2-1zm-6-4l-4-4c-2-2-3-3-1-4 0 0 1-1 0-1 0-1-1 0-1 0 0 1-1 2-2 2s-1-4 1-5c0 0 1-1 0-1 0 0-2 0-3 2l-3 2 5 5c3 4 8 6 8 4zm44-4c0-1 0-1 1-1 2 0 5-3 5-5 0-1-1-1-2-1-2 0-2 0-2 1 0 0-1 1-2 1-2 0-2 0-2 3 0 1 0 3 1 3l1-1zm-60-4c0-1-1-1-1-1-1 0-1 0-1 1 0 0 0 1 1 1l1-1zm18-5c0-2-1-2-2-2-2 0-2 0-2 2 0 1 0 2 2 2 1 0 2-1 2-2zm76-1c0-1-1-1-1-1-1 0-1-1-1-2 0-2-3-5-5-4-1 0-1-1-1-2 0-2-5-7-6-6-1 0 0 1 0 1 1 0 2 2 2 3s0 2 1 2c0 0 1 0 1 2 0 1 0 2 1 2 0 0 1 0 1 1s0 2 1 3c1 2 7 2 7 1zm-32-6c0-1-1-1-2-1-2 0-2 0-2 1 0 0 0 1 2 1 1 0 2-1 2-1zm2-9c0-2-1-2-1-2-1 0-1 0-1 2 0 1 0 2 1 2 0 0 1-1 1-2zm8-1c0-1-1-1-2-1-2 0-2 0-2 1 0 0 0 1 2 1 1 0 2-1 2-1zm-62-5c0-2 0-2 1-2 0 0 1-1 1-2s0-3 2-3c3-3 2-3-3-3-3 0-5 0-5 1 0 0 0 1 2 1 1 0 2 0 2 1s-1 3-2 4c-2 0-2 2-2 3s0 2 2 2c1 0 2-1 2-2zm42 87c0-1 0-1 1-1 0 0 1 0 1 1l-1 1c-1 0-1-1-1-1zm42-12c0-1 0-1 1-1 0 0 1 0 1 1l-1 1c-1 0-1-1-1-1zm18-18c0-1-1-1-2-1-2 0-2-1-2-1 0-1 0-1 2-1 1 0 2-1 2-1 0-1 0-1 1-1 0 0 1 1 1 3 0 1-1 3-1 3-1 0-1-1-1-1zm-18-10c0-1 0-1 1-1 0 0 1 0 1 1l-1 1c-1 0-1-1-1-1zm14-23c0-2-1-2-1-2-1 0-1-1-1-2 0-2-1-2-1-2-1 0-1-2-1-3 0-2 1-4 4-7 2-2 4-4 4-6 0-1 0-2 1-2s1 22-1 24-4 2-4 0zm-8-15c0-1 0-1 1-1 0 0 1 0 1 1l-1 1c-1 0-1-1-1-1zm-2-8c0-1 0-1 1-1 0 0 1 0 1 1l-1 1c-1 0-1-1-1-1zm-10-7c0-4 0-4-4-4s-4-1-4-2c0-2-1-2-1-2-1 0-1-1-1-1 0-1 4-1 12-1h12v3c0 1-1 3-1 3-1 0-1 0-1 2 0 1-1 2-1 2-1 0-1 0-1 2 0 1-1 2-5 2h-5v-4zM63 2c-2-2-2-2 1-2 1 0 2 0 2 2s-1 2-3 0z" fill="#DF5D13"/><path d="M0 109c0-12 0-19 1-19s1-6-1-7v-1c1 0 2-2 2-3s0-1 2-1c3 0 4-1 5-3 2-6 6-3 6 3 0 2 1 4 2 4 0 0 1-2 1-4 0-3 0-4 2-5 1-1 2-3 2-4 0-2-2-2-3 0 0 1-1 1-1 0-1-2-2-2-2-1s-2 2-4 2h-2v-7c0-4 0-7 1-7l1-1c0-1-1-1-2-1-2 0-2 0-2 1 0 0-1 1-2 1-2 0-2 0-2 1 0 0-1 1-2 1-2 0-2-1-2-2 0-2 0-2 1-3 2 0 5-2 4-3 0-1-1 0-1 0 0 1-2 2-3 2s-1-1-1-10 0-10 1-11c3-2 3-5 2-5s-1 0-1 1l-1 1c-1 0-1-4 1-5 2-2 2-5 1-5s-1 0-1 1l-1 1c-1 0-1-4-1-10V0h16c10 0 16 0 16 1 0 0-1 1-2 1-2 0-2 0-2 1 0 0 1 1 3 1 1 0 3-1 3-1 0-1 1-1 4-1 2 0 4 0 4 1h-3c-3 0-7 4-8 7 0 0-1 2-3 4s-3 3-2 3 1 2 1 5c1 2 1 4 2 4 0 0 1 0 1 1 0 0-1 1-2 1-3 0-3 0-1 2 1 2 2 2 2 1 1-1 2-1 4 1 1 1 2 3 3 4 0 1 2 4 4 4 1 0 2 0 2 2 0 1 0 2 1 2 0 0 1 0 1 2 0 1 0 2 1 2 0 0 1 0 1 2 0 1 0 2 1 2s3 0 3 1 1 0 2-1 3-2 4-2 2-1 2-2c0 0 1-1 1 0 1 0 0 1 0 1-2 1-2 3 1 3 1 0 2-1 2-1 0-1 0-1 2-1 1 0 2 0 2 3 0 2-1 3-3 3s-3-1-3-1c0-1-1-1-2-1-3 0-3 2-1 4 1 1 2 2 4 2 1 0 3 1 5 3s6 4 6 2c0-1 0-1 1-1 0 0 1 0 1 2 0 1-1 2-3 2-1 0-3 0-4 1-2 2-2 5 0 5 0 0 1 1 1 3 0 3-2 4-3 1 0-1-1-1-1 0-1 2-2 2-3 0l-2-2c0-2-2-4-4-4-1 0-1-1-1-1 0-1 0-1 1-1 0 0 1-1 1-2 0-2 0-2 2-2s2-1-2-5l-4-4-2 3c-4 4-6 4-8 2 0-2-2-2-3-2s-1-1-1-2-1-2-1-3c-2 0-3-5-1-7s2-2 0-2-2 0-2 2c0 1-1 2-1 2-1 0-1 0-2 1 0 1-1 3-3 5-3 2-3 5 0 4 1-1 2 0 2 1 0 2-1 3-1 3-1 0-1 0-1 2 0 1-1 2-1 2-1 0-1 0-1 2v1c1 0 4-2 4-4 0-1 0-1 1-1l1-1c0-1 2-4 3-3 1 0 0 1 0 1-1 0-1 2-1 4 0 1-1 3-1 3-1 0-1 0-1 2 0 1 0 2 2 2 1 0 2 0 2 2 0 1-1 2-1 2-1 0-1 0-1 1s-1 3-2 4c-2 0-2 2-2 3s-1 2-1 2c-1 0-1 2-1 6 0 6 0 7 2 9 3 3 4 3 4 1 0-1 0-3 2-4l2-2v3c0 1 0 3 1 3l1-1c0-1 0-1 2-1 1 0 2-1 2-1 0-1-1-1-1-1-2 0-2-3 0-5s3-2 3 3c0 2-1 4-1 4-1 0-1 0-1 2 0 1 0 2 1 2 0 0 1 0 1 1s1 3 3 5c1 1 3 4 3 5s0 3 1 3c0 0 1 1 1 3 0 1 0 3 1 3 0 0 1 0 1 1 0 0-2 1-4 1-4 0-4-1-4-2 0-2-1-2-1-2-1 0-1 0-1 2 0 1-1 2-23 2H0v-19zm42 10c0-1-1-1-1-1-1 0-1 0-1 1 0 0 0 1 1 1l1-1zm6-4c0-1-1-1-1-1-1 0-1 0-1 1 0 0 0 1 1 1l1-1zm-18-2c0-1-1-1-1-1-1 0-1 0-1 1 0 0 0 1 1 1l1-1zm-2-7c0-2-7-9-8-8-1 0 0 1 0 1 1 0 2 1 2 2 0 2 3 6 5 6 0 0 1 0 1-1zm10 1c0-1-1-1-1-1-1 0-1 0-1 1 0 0 0 1 1 1l1-1zm26-32c0-1-1-1-1-1-1 0-1 0-1 1 0 0 0 1 1 1l1-1zm0-7c2-2 2-2 0-2s-4 2-4 3 3 0 4-1zm-44-6c0-1-1-3-2-3 0 0-1-1 0-1 0-1 1 0 1 0 1 2 5 2 5 0 0-1-11-12-12-12-2 0 0 3 3 6 3 2 3 5 1 6-1 0-1 1 0 1s2 2 2 3 0 2 1 2c0 0 1-1 1-2zm22-5c0-1-1-1-1-1-1 0-1 0-1 1 0 0 0 1 1 1l1-1zm-2-4c0-1-1-1-1-1-1 0-1 0-1 1 0 0 0 1 1 1l1-1zm-10-2l-4-4c-2-2-3-3-1-4 0 0 1-1 0-1 0-1-1 0-1 0 0 1-1 2-2 2s-1-4 1-5c0 0 1-1 0-1 0 0-2 0-3 2l-3 2 5 5c3 4 8 6 8 4zm-16-8c0-1-1-1-1-1-1 0-1 0-1 1 0 0 0 1 1 1l1-1zm18-5c0-2-1-2-2-2-2 0-2 0-2 2 0 1 0 2 2 2 1 0 2-1 2-2zm-8-22c0-2 0-2 1-2 0 0 1-1 1-2s0-3 2-3c3-3 2-3-3-3-3 0-5 0-5 1 0 0 0 1 2 1 1 0 2 0 2 1 0 2-5 7-7 7-1 0-1 0-1 1 0 0 1 1 4 1s4-1 4-2zm-12-1c0-1-1-1-1-1-1 0-1 0-1 1 0 0 0 1 1 1l1-1zm62 110v-3c1 0 1-3 1-6 0-4 1-6 2-7 1 0 1-1 0-2-2 0-2-1-1-1s2-2 2-5c0-2 0-3 1-3 0 0 1-2 1-4 0-3 0-4 1-4 0 0 1-1 1-2 0-2 0-2 1-2 0 0 1-2 1-3 0-3 0-3 1-3 2 0 5 2 5 4s2 3 4 2c1-1 2 0 2 1 0 2-1 3-1 3-2 0-2 3 0 4 2 0-2 4-5 4-2 0-2 0-2 2 0 1 0 2 1 2 0 0 1 0 1 2 0 1 0 2 1 2s2 0 2 1c0 0-3 1-5 1s-4 0-4 1c0 0 0 1 2 1 1 0 2 0 2 1 0 0 0 1 1 1s2 0 2 1c0 0-1 1-2 1s-1 0-1 2c0 1 0 2 1 2 0 0 1 0 1 1s0 3 2 4c1 0 2 2 2 3s-2 2-10 2H74v-3zm11-26c3-3 3-5 1-6-1 0-1-1 0-1 2-1 2-6 1-6s-1 0-1 2c0 1-1 2-1 2-1 0-1 1-1 3 0 1-1 3-1 3-1 0-1 0-1 2 0 1-1 2-1 2-1 0-1 0-1 1s3 1 5-2zm23-8c0-1 0-1 1-1 0 0 1 0 1 1l-1 1c-1 0-1-1-1-1zm-8-6c0-3-1-5-1-5-1 0-1-1-1-2 0-2-1-2-1-2-1 0-1-1-1-2 0-2-1-2-1-2-1 0-1-1-1-2v-2c1 0 2 0 3 2 0 1 2 2 3 2 0 0 2 0 3 2 0 1 2 2 3 2s2 0 2 1c0 0 1 1 1 0 1 0 0-1 0-1-1 0-1-1-1-2 0-2-1-3-2-3s-1-1 1-2c2-2 3-2 3 0 0 1 0 3 2 3 2 1 2 3 0 4 0 0-1 1 0 1 0 0 1 0 2-1 3-3 4-3 4 0 0 1-1 2-1 2-1 0-1 1-1 3 0 1-1 3-1 3-1 0-1-1-1-2h-1c-1 0-2 0-3-1s-2-1-3-1-1-1-1-1c0-1-1-1-2-1h-2c0 1 0 2 2 3 1 0 2 2 2 2 0 2-5 7-6 7v-5zm-8-1c0-2 0-2 1-2 0 0 1 0 1 2 0 1-1 2-1 2-1 0-1-1-1-2zm34-11c0-1-1-1-2-1-2 0-2-1-2-1 0-1 0-1 2-1 1 0 2-1 2-1 0-1 0-1 1-1 0 0 1 1 1 3 0 1-1 3-1 3-1 0-1-1-1-1zm-90-3c0-2 0-2 1-2 0 0 1 0 1 2 0 1-1 2-1 2-1 0-1-1-1-2zm80 0c0-2 0-2 1-2 0 0 1-4 1-9 0-8-1-9-2-10-2-1-2-3-2-4s-1-1-1-1c-1 0-1-1-1-2 0-2-1-2-2-2-2 0-2 0-2 1 0 0-1 1-2 1-2 0-2-1-2-1 0-1-1-1-2-1-2 0-2 0-2 1 0 0 0 1 1 1 0 0 1 0 1 2 0 1 0 2 1 2 0 0 1 0 1 2 0 1 0 2 1 2 0 0 1 0 0 0-1 1-3-1-3-2 0-2-3-4-5-4-1 0-2-1-2-2 0 0-1-1-1 0-1 0 0 1 0 1 2 1 2 4 0 7-3 3-3 8-1 8 0 0 1 0 1 2 0 1-1 2-2 2-2 0-2-1-2-1 0-2-4-2-5 0 0 1-1 1-1 0s-1-1-2-1-2-1-3-2c-2-2-3-2-3 1 0 2-1 3-2 3-2 0-2-1-2-7 0-4-1-7-1-7-1 0-1-1-1-2s-1-2-2-3c-1-2-2-2-3 0-2 3-7 3-8 1 0-1-1-1-1 0-1 2-6 2-6 1s-2-1-3-1c-3 0-3-1-3-2s-1-3-2-3-1-1 1-2c2-2 4-2 5 0 0 0 1 1 1 0 1 0 0-1 0-1-1 0-1-2-1-3 0-3 2-6 3-5 1 0 0 1 0 1-2 1-2 3 1 6s5 3 6 1c0-1 1-1 1 0 1 1 2 2 2 1 1 0 0-1 0-1-2-1-2-4-1-4s2 0 3 2c1 1 2 2 5 2s4-1 4-2c0-3-2-3-3-1 0 0-1 1-1 0 0 0 0-2 2-3 1-2 3-2 3-2 1 0 0 1 0 1-2 1-2 3 1 3 1 0 2-1 2-2s-1-3-2-4c-2-1-2-2-2-5v-3h6c3 0 6-1 6-1 0-1 2-2 5-2 5 0 6 1 10 4 4 5 7 6 7 3 0-2-1-2-2-2s-3-2-4-3c-3-3-3-3-14-3-6 0-10-1-10-1 0-1-1-1-2-1-2 0-2-1-2-2 0-2-1-2-2-2-2 0-2-1-2-2 0-2 2-4 4-4 1 0 2-1 2-1 0-1 2-1 6-1s6 0 6 1-1 2-1 2c-1 0-1 1-1 3 0 3 0 4 2 4 1 0 2 0 2 1 0 0 1 1 3 1 1 0 3-1 3-1 0-1 0-1 2-1 1 0 2 0 2 2 0 1 0 1 1 1 2 0 9 7 9 9 0 1-1 2-2 2s-1 1 0 1 2 1 2 2 0 3 2 4c1 0 2 2 2 3s0 2 1 2c0 0 1 1 1 2 0 2 0 4 2 5 1 0 2 2 2 3s0 2 1 2c0 0 1 1 1 3 0 1 0 3 1 3 0 0 1 2 1 6 0 3-1 6-1 6-1 0-1 1-1 3s-1 3-2 3c-2 0-2-1-2-2zM82 56c0-2-1-2-1-2-1 0-1 0-1 2 0 1 0 2 1 2 0 0 1-1 1-2zm-8-9c0-1 0-1 1-1 2 0 5-3 5-5 0-1-1-1-2-1-2 0-2 0-2 1 0 0-1 1-2 1-2 0-2 0-2 3 0 1 0 3 1 3l1-1zm34-10c0-1-1-1-1-1-1 0-1-1-1-2 0-2-3-5-5-4-1 0-1-1-1-2 0-2-5-7-6-6-1 0 0 1 0 1 1 0 2 2 2 3s0 2 1 2c0 0 1 0 1 2 0 1 0 2 1 2 0 0 1 0 1 1s0 2 1 3c1 2 7 2 7 1zM78 22c0-2-1-2-1-2-1 0-1 0-1 2 0 1 0 2 1 2 0 0 1-1 1-2zm8-1c0-1-1-1-2-1-2 0-2 0-2 1 0 0 0 1 2 1 1 0 2-1 2-1zm22 42c0-1 0-1 1-1 0 0 1 0 1 1l-1 1c-1 0-1-1-1-1zm14-23c0-2-1-2-1-2-1 0-1-1-1-2 0-2-1-2-1-2-1 0-1-2-1-3 0-2 1-4 4-7 2-2 4-4 4-6 0-1 0-2 1-2s1 22-1 24-4 2-4 0zm-8-15c0-1 0-1 1-1 0 0 1 0 1 1l-1 1c-1 0-1-1-1-1zm-2-8c0-1 0-1 1-1 0 0 1 0 1 1l-1 1c-1 0-1-1-1-1zm-10-7c0-4 0-4-4-4s-4-1-4-2c0-2-1-2-1-2-1 0-1-1-1-1 0-1 4-1 12-1h12v3c0 1-1 3-1 3-1 0-1 0-1 2 0 1-1 2-1 2-1 0-1 0-1 2 0 1-1 2-5 2h-5v-4zM63 2c-2-2-2-2 1-2 1 0 2 0 2 2s-1 2-3 0z" fill="#9D6126"/><path d="M0 113c0-10 0-15 1-15 0 0 1-1 1-2 0-2 0-2 1-2 0 0 1-2 1-3 0-2 0-3 1-3 0 0 1-2 1-3 0-2 0-3 1-3 0 0 1-2 1-3 0-2 0-3 1-3 0 0 1-1 1-2 0-2 0-2 1-2 0 0 1 1 1 2 0 2 3 8 5 8 0 0 1-2 1-3 0-2 0-3 1-3 0 0 1-1 1-2 0-2 0-2 1-2 0 0 1-1 1-2 0-3-2-3-3-1 0 1-1 1-1 0-1-2-4-2-4 0 0 0-1 1-2 1-2 0-2-1-2-2 0-2 0-2 1-2 0 0 1-2 1-3 0-2 0-3 1-3 0 0 1 0 1 2s1 2 2 0c0-1 1-1 1 0s1 2 2 2 1-4-1-5c0 0-1-1 0-1 0-1 1 0 1 0 1 2 5 2 5 0 0-1-3-4-5-6-4-4-5-6-5-8 0-1-1-2-1-2-1 0-1 2-1 4 0 5-2 8-5 8 0 0-2 0-2 1-2 3-3 3-3 1s0-2 1-3c1 0 2 0 3-1 2-2 2-4 1-4s-1-1-1-2c0-3-1-3-3-1-2 1-2 2-1 2 2 1 2 5 1 5s-1-1-1-2c0-2-1-2-1-2-1 0-1-4-1-8 0-7 0-8 1-9 3-2 3-5 2-5s-1 0-1 1l-1 1c-1 0-1-4 1-5 2-2 2-5 1-5s-1 0-1 1l-1 1c-1 0-1-6 0-7 1 0 1-1 0-1S0 9 0 5V0h16c10 0 16 0 16 1 0 0-1 1-2 1-2 0-2 0-2 1 0 0 1 1 4 1 2 0 4-1 4-1 0-1 0-1 2-1 1 0 2 0 2 1 0 0-1 1-2 1-2 0-2 0-2 1 0 0-1 1-2 1-2 0-2 0-2 2 0 1-1 2-1 2-1 0-1 0-1 1s-1 3-2 4c-3 1-3 8-1 9 1 0 0 1-1 2-3 3-3 4 0 4 2 0 2 3 0 4-1 0-1 1 0 1s2 2 2 4 0 3 1 2c0-2 0-2 0 0s0 3-1 3c-2 0-2-1-2-2 0-2-1-2-1-2-1 0-1-1-1-2 0-2-1-2-1-2-1 0-1 0-1 1s-1 3-3 4l-2 1 4 4c3 3 5 5 5 6 0 2 0 2 2 0 1-1 2-3 2-5s0-3 1-3c0 0 1-3 1-6 0-4 0-6 1-6 0 0 1 0 1 1s1 3 4 5c2 3 3 5 3 6 0 0 1 2 2 3 2 0 2 2 2 2 0 1 2 3 3 5 4 3 4 4 1 7s-5 3-7 1c0-2-2-2-3-2s-1-1-1-2-1-2-1-3c-2 0-3-5-1-7s2-2 0-2-2 0-2 2c0 1-1 2-1 2-1 0-1 0-2 1 0 1-1 3-3 5-3 2-3 5 0 4 1-1 2 0 2 1 0 2-1 3-1 3-1 0-1 0-1 2 0 1-1 2-1 2-1 0-1 0-1 2v1c1 0 4-2 4-4 0-1 0-1 1-1l1-1c0-1 2-4 3-3 1 0 0 1 0 1-1 0-1 2-1 4 0 1-1 3-1 3-1 0-1 0-1 2 0 1 0 2 2 2 1 0 2 0 2 2 0 1-1 2-1 2-1 0-1 0-1 1s-1 3-2 4c-2 0-2 2-2 3s-1 2-1 2c-1 0-1 2-1 6 0 6 0 7 2 9 3 3 4 3 4 1 0-1 0-3 2-4l2-2v3c0 1 0 3 1 3l1-1c0-1 0-1 2-1 1 0 2-1 2-1 0-1-1-1-1-1-2 0-2-3 0-5s3-2 3 3c0 2-1 4-1 4-1 0-1 0-1 2 0 1 0 2 1 2 0 0 1 0 1 1s1 3 3 5c1 1 3 4 3 5s0 3 1 3c0 0 1 1 1 3 0 1 0 3 1 3 0 0 1 0 1 1s-6 1-7-1-2-2-3-2v2c0 2-4 2-5 0 0-1-1-1-1 0-1 1-6 2-21 2H0v-15zm42 5c1-1 1-2 1-2 0-1-1 0-1 0 0 1-2 2-3 2s-1 0-1 1 2 1 4-1zm-2-3c0-1-1-1-1-1-1 0-1 0-1 1 0 0 0 1 1 1l1-1zm8 0c0-1-1-1-1-1-1 0-1 0-1 1 0 0 0 1 1 1l1-1zm-18-2c0-1-1-1-2-1-2 0-2 0-2 1 0 0 0 1 2 1 1 0 2-1 2-1zm-2-7c0-1-1-3-2-3-2-1-2-3-2-4s-1-1-2-1c-3 0-3 2 1 6 3 4 5 4 5 2zm10 1c0-1-1-1-1-1-1 0-1 0-1 1 0 0 0 1 1 1l1-1zm4-50c0-1-1-1-1-1-1 0-1 0-1 1 0 0 0 1 1 1l1-1zm-2-4c0-1-1-1-1-1-1 0-1 0-1 1 0 0 0 1 1 1l1-1zM8 37c0-2-1-3-1-3-1 0-1 1-1 3 0 1 0 3 1 3 0 0 1-2 1-3zm16-21c0-1 0-3 2-3 1-1 2-3 2-4s0-1 1-1l1-1c0-1-3-1-5-1-6 0-6 0-3 3 2 1 2 2 0 3l-2 2c-2 0-4 2-4 3 0 0 1 1 4 1s4-1 4-2zm-12-1c0-1-1-1-1-1-1 0-1 0-1 1 0 0 0 1 1 1l1-1zm70 75c0-2 0-2 1-2 0 0 1 0 1 2 0 1-1 2-1 2-1 0-1-1-1-2zm2-6v-4c1 0 4 2 4 4 0 1-3 4-4 4v-4zm18 1c0-1 0-1 1-1 0 0 1 0 1 1l-1 1c-1 0-1-1-1-1zm-41-7c-1-1-1-2-1-3s-3-3-5-3c-1 0-1-1-1-1 0-1 0-1 1-1 0 0 1-1 1-2 0-2 0-2 2-2 1 0 2 0 2 2s2 2 4 0 2-4 1-4-1 0-1 1c0 0-1 1-2 1-2 0-8-7-8-9 0-1-1-1-1-1-1 0-1-1-1-2 0-3 5-6 5-4 1 2 5 2 5 1s0-1 1-1c0 0 1 0 1 2 0 1 0 2 1 2 0 0 1 0 1 1s-6 1-7-1c-2-3-3-3-3 0s2 6 5 6c1 0 3 1 5 3s6 4 6 2c0-1 0-1 1-1 0 0 1 0 1 2 0 1-1 2-3 2-1 0-3 0-4 1-2 2-2 5 0 5 0 0 1 1 1 3 0 3-2 4-3 1 0-1-1-1-1 0-1 2-2 2-3 0zm3-3c0-1-1-1-1-1-1 0-1 0-1 1 0 0 0 1 1 1l1-1zm-28-5c0-2 0-2 1-2 0 0 1 0 1 2 0 1-1 2-1 2-1 0-1-1-1-2zm38-10c0-1-1-3-2-3s0-1 1-2c3-3 3-3 1-3s-2-1-2-2c0-2 2-4 4-4 1 0 4-3 4-5 0-1-1-1-2-1-2 0-2 0-2 1 0 0-2 1-3 1-2 0-4 0-4 1s-1 1-1 0c-1-2-4-2-4 1 0 1-1 2-2 2-2 0-2-1-2-1 0-2-6-2-7 0 0 1-1 1-1 0s-2-1-4-1c-1 0-2-1-2-1 0-1 1-1 2-1 3 0 4-3 2-5s-3-5-2-5c0 0 2 1 4 3 1 2 3 3 5 3s3 0 3 1v1c1 0 2-1 2-2s1-1 1 0c1 2 5 2 5 1s-1-2-2-2c0 0-1-1 0-1 0-1 1 0 1 0 1 1 2 1 5-2s5-6 3-6c-1 0-1-1-1-2 0-2 0-2 2-2 1 0 2-1 2-2 0-2-1-2-3-2s-3-1-3-1c0-2 5-2 6 0 0 1 1 1 1 0s2-1 3-1 2-1 2-1c0-1 0-1 2-1 1 0 2 0 2 1s3 1 4-1c0 0 2 1 4 3s5 4 6 4c4 1 6 3 6 5 0 1 0 2 1 2 0 0 1 0 1 2 0 1 0 2 1 2 0 0 1 0 1 2 0 1 0 2 1 2 0 0 1 0 1 2 0 1 0 2 1 2 0 0 1 0 1 1s0 3 1 3c0 0 1 1 0 1-1 1-4-2-3-4 0-1-1-1-1-1-1 0-1-1-1-2 0-2-1-2-2-2-2 0-2 0-2 2s-3 2-5 0-2-2 2-2c3 0 4-3 0-6-1-1-2-2-1-3l1-1c-1 0-2 0-2 1s-2-1-4-3c-5-5-5-5-5-2 0 1 0 2 1 2 0 0 1 0 1 2 0 1 0 2 1 2 0 0 1 0 1 2 0 1 0 2 1 2s1 3-1 4c-1 0-1 1 0 1s2 1 2 3c0 1 0 2 1 2 0 0 1 1 0 1 0 0-1 0-2-1-2-2-3-2-10-2-8 0-9 0-5 3 1 0 2 2 2 3s0 2 1 2c0 0 1 0 1 2 0 1 0 2 1 2 0 0 1 1 1 3 0 3-2 4-3 1 0-1-1-1-1 0-1 2-2 2-2 0s-3-4-4-4v2c0 1 0 2 1 2s2 0 2 1-2 1-4-1-3-2-3 1c0 1-1 3-1 3-1 0-1-1-1-2zm14-39c0-1-2-1-3-1-2 0-3 0-3 1 0 0 1 1 3 1 1 0 3-1 3-1zm34 18c-1-1-2-3-2-4s-1-1-1-1c-1 0-1-2-1-3 0-2 1-4 4-6 2-3 4-5 4-7 0-1 0-2 1-2s1 22-1 24-2 2-4-1zm-16-18c0-1 0-1 1-1 0 0 1 0 1 1l-1 1c-1 0-1-1-1-1zm-30-8c0-1-1-1-2-1-2 0-2-1-2-2 0-2-1-2-2-2-2 0-2-1-2-1 0-1 5-5 6-5s2-1 2-1c0-1 2-1 5-1 2 0 5 0 5 1l-1 1c-2 0-2 6 0 8s11 2 11 1 0-1 1-1c0 0 1 0 1 2 0 1-1 2-11 2-7 0-11-1-11-1zm34 0c0-1-2-1-4-1-3 0-4-1-4-1 0-1 1-1 3-1 1 0 3-1 3-1 0-1-1-1-2-1-2 0-2-1-2-1 0-1-2-1-4-1-3 0-4-1-4-1 0-1 0-1 1-1l1-1c0-1-2-1-3-1-2 0-3-1-3-1 0-1 4-1 12-1h12v3c0 1-1 3-1 3-1 0-1 0-1 2 0 1-1 2-1 2-1 0-1 0-1 2 0 1-1 2-1 2-1 0-1-1-1-1zM62 1c0-1 0-1 1-1 0 0 1 0 1 1l-1 1c-1 0-1-1-1-1z" fill="#1B588E"/><path d="M0 113c0-10 0-15 1-15 0 0 1-1 1-2 0-2 0-2 1-2 0 0 1-2 1-3 0-2 0-3 1-3 0 0 1-2 1-3 0-2 0-3 1-3 0 0 1-2 1-3 0-2 0-3 1-3 0 0 1-1 1-2 0-2 0-2 1-2 0 0 1 1 1 2 0 2 3 8 5 8 0 0 1-2 1-3 0-2 0-3 1-3 0 0 1-1 1-2 0-2 0-2 1-2 0 0 1-1 1-2 0-3-2-3-3-1 0 1-1 1-1 0-1-2-4-2-4 0 0 0-1 1-2 1-2 0-2-1-2-2 0-2 0-2 1-2 0 0 1-2 1-3 0-2 0-3 1-3 0 0 1 0 1 2s1 2 2 0c0-1 1-1 1 0s1 2 2 2 1-4-1-5c0 0-1-1 0-1 0-1 1 0 1 0 1 2 5 2 5 0 0-1-3-4-5-6-6-6-6-7-4-9 1-1 2-1 6 3 2 2 5 5 5 6 0 2 0 2 2 0 1-1 2-3 2-5s0-3 1-3c0 0 1-3 1-6 0-4 0-6 1-6 0 0 1 0 1 1s1 3 4 5c2 3 3 5 3 6 0 0 1 2 2 3 2 0 2 2 2 2 0 1 2 3 3 5 4 3 4 4 1 7s-5 3-7 1c0-2-2-2-3-2s-1-1-1-2-1-2-1-3c-2 0-3-5-1-7s2-2 0-2-2 0-2 2c0 1-1 2-1 2-1 0-1 0-2 1 0 1-1 3-3 5-3 2-3 5 0 4 1-1 2 0 2 1 0 2-1 3-1 3-1 0-1 0-1 2 0 1-1 2-1 2-1 0-1 0-1 2v1c1 0 4-2 4-4 0-1 0-1 1-1l1-1c0-1 2-4 3-3 1 0 0 1 0 1-1 0-1 2-1 4 0 1-1 3-1 3-1 0-1 0-1 2 0 1 0 2 2 2 1 0 2 0 2 2 0 1-1 2-1 2-1 0-1 0-1 1s-1 3-2 4c-2 0-2 2-2 3s-1 2-1 2c-1 0-1 2-1 6 0 6 0 7 2 9 3 3 4 3 4 1 0-1 0-3 2-4l2-2v3c0 1 0 3 1 3l1-1c0-1 0-1 2-1 1 0 2-1 2-1 0-1-1-1-1-1-2 0-2-3 0-5s3-2 3 3c0 2-1 4-1 4-1 0-1 0-1 2 0 1 0 2 1 2 0 0 1 0 1 1s1 3 3 5c1 1 3 4 3 5s0 3 1 3c0 0 1 1 1 3 0 1 0 3 1 3 0 0 1 0 1 1s-6 1-7-1-2-2-3-2v2c0 2-4 2-5 0 0-1-1-1-1 0-1 1-6 2-21 2H0v-15zm42 5c1-1 1-2 1-2 0-1-1 0-1 0 0 1-2 2-3 2s-1 0-1 1 2 1 4-1zm-2-3c0-1-1-1-1-1-1 0-1 0-1 1 0 0 0 1 1 1l1-1zm8 0c0-1-1-1-1-1-1 0-1 0-1 1 0 0 0 1 1 1l1-1zm-18-2c0-1-1-1-2-1-2 0-2 0-2 1 0 0 0 1 2 1 1 0 2-1 2-1zm-2-7c0-1-1-3-2-3-2-1-2-3-2-4s-1-1-2-1c-3 0-3 2 1 6 3 4 5 4 5 2zm10 1c0-1-1-1-1-1-1 0-1 0-1 1 0 0 0 1 1 1l1-1zm4-50c0-1-1-1-1-1-1 0-1 0-1 1 0 0 0 1 1 1l1-1zm-2-4c0-1-1-1-1-1-1 0-1 0-1 1 0 0 0 1 1 1l1-1zm42 37c0-2 0-2 1-2 0 0 1 0 1 2 0 1-1 2-1 2-1 0-1-1-1-2zm2-6v-4c1 0 4 2 4 4 0 1-3 4-4 4v-4zm18 1c0-1 0-1 1-1 0 0 1 0 1 1l-1 1c-1 0-1-1-1-1zm-41-7c-1-1-1-2-1-3s-3-3-5-3c-1 0-1-1-1-1 0-1 0-1 1-1 0 0 1-1 1-2 0-2 0-2 2-2 1 0 2 0 2 2s2 2 4 0 2-4 1-4-1 0-1 1c0 0-1 1-2 1-2 0-8-7-8-9 0-1-1-1-1-1-1 0-1-1-1-2 0-3 5-6 5-4 1 2 5 2 5 1s0-1 1-1c0 0 1 0 1 2 0 1 0 2 1 2 0 0 1 0 1 1s-6 1-7-1c-2-3-3-3-3 0s2 6 5 6c1 0 3 1 5 3s6 4 6 2c0-1 0-1 1-1 0 0 1 0 1 2 0 1-1 2-3 2-1 0-3 0-4 1-2 2-2 5 0 5 0 0 1 1 1 3 0 3-2 4-3 1 0-1-1-1-1 0-1 2-2 2-3 0zm3-3c0-1-1-1-1-1-1 0-1 0-1 1 0 0 0 1 1 1l1-1zm-28-5c0-2 0-2 1-2 0 0 1 0 1 2 0 1-1 2-1 2-1 0-1-1-1-2zm38-10c0-1-1-3-2-3s0-1 1-2c3-3 3-3 1-3s-2-1-2-2c0-2 2-4 4-4 1 0 4-3 4-5 0-1-1-1-2-1-2 0-2 0-2 1 0 0-2 1-3 1-2 0-4 0-4 1s-1 1-1 0c-1-2-4-2-4 1 0 1-1 2-2 2-2 0-2-1-2-1 0-2-6-2-7 0 0 1-1 1-1 0s-2-1-4-1c-1 0-2-1-2-1 0-1 1-1 2-1 3 0 4-3 2-5s-3-5-2-5c0 0 2 1 4 3 1 2 3 3 5 3s3 0 3 1v1c1 0 2-1 2-2s1-1 1 0c1 2 5 2 5 1s-1-2-2-2c0 0-1-1 0-1 0-1 1 0 1 0 1 1 2 1 5-2s5-6 3-6c-1 0-1-1-1-2 0-2 0-2 2-2 1 0 2-1 2-2 0-2-1-2-3-2s-3-1-3-1c0-2 5-2 6 0 0 1 1 1 1 0s3-1 7-1c3 0 5-1 6-2 0 0 2 1 4 3s5 4 6 4c4 1 6 3 6 5 0 1 0 2 1 2 0 0 1 0 1 2 0 1 0 2 1 2 0 0 1 0 1 2 0 1 0 2 1 2 0 0 1 0 1 2 0 1 0 2 1 2 0 0 1 0 1 1s0 3 1 3c0 0 1 1 0 1-1 1-4-2-3-4 0-1-1-1-1-1-1 0-1-1-1-2 0-2-1-2-2-2-2 0-2 0-2 2s-3 2-5 0-2-2 2-2c3 0 4-3 0-6-1-1-2-2-1-3l1-1c-1 0-2 0-2 1s-2-1-4-3c-5-5-5-5-5-2 0 1 0 2 1 2 0 0 1 0 1 2 0 1 0 2 1 2 0 0 1 0 1 2 0 1 0 2 1 2s1 3-1 4c-1 0-1 1 0 1s2 1 2 3c0 1 0 2 1 2 0 0 1 1 0 1 0 0-1 0-2-1-2-2-3-2-10-2-8 0-9 0-5 3 1 0 2 2 2 3s0 2 1 2c0 0 1 0 1 2 0 1 0 2 1 2 0 0 1 1 1 3 0 3-2 4-3 1 0-1-1-1-1 0-1 2-2 2-2 0s-3-4-4-4v2c0 1 0 2 1 2s2 0 2 1-2 1-4-1-3-2-3 1c0 1-1 3-1 3-1 0-1-1-1-2zm14-39c0-1-2-1-3-1-2 0-3 0-3 1 0 0 1 1 3 1 1 0 3-1 3-1zM2 56c0-2 0-2 1-2s2-1 3-2c2-2 2-4 1-4s-1-1-1-2c0-3-1-3-3-1-2 1-2 2-1 2 2 1 2 5 1 5s-1-1-1-2c0-2-1-2-1-2-1 0-1-4-1-8 0-7 0-8 2-10 2-1 2-4 1-4s-1 0-1 1l-1 1c-1 0-1-4 0-5 3-2 3-5 2-5s-1 0-1 1l-1 1c-1 0-1-6 0-7 1 0 1-1 0-1S0 9 0 5V0h14c8 0 14 0 14 1l-1 1c-1 0-1 0-1 2 0 1-1 2-3 2s-3 0-3 1c0 0 0 1 1 1 2 0 0 3-3 6s-3 4 0 4c1 0 2 0 2 1l-1 1c-1 0-1 2-1 5 0 4-1 6-2 7-1 2-4 2-4 1s-2-1-4-1c-3 0-5 0-4 1h1s1 1 1 3 0 4 1 4c0 0 1-2 1-3 0-4 0-4 2-2 2 1 2 2 1 2-2 1-2 7 0 7 0 0 1 1 1 3 0 4-2 7-5 7 0 0-2 0-2 2-1 1-2 2-3 2v-2zm10-41c0-1-1-1-1-1-1 0-1 0-1 1 0 0 0 1 1 1l1-1zm14 27c0-2-1-2-1-2-1 0-1-1-1-2 0-2-1-2-1-2-1 0-1-4-1-9 0-6 0-9 1-9 0 0 1-1 1-2s0-3 2-3c1-1 1-3 2-4 0-1 0-1 1-1 0 0 1-1 1-2 0-2 0-2 3-2 1 0 3-1 3-1 0-1 0-1 2-1 1 0 2 0 2 1 0 0-1 1-2 1-2 0-2 0-2 1 0 0-1 1-2 1-2 0-2 0-2 2 0 1-1 2-1 2-1 0-1 0-1 1s-1 3-2 4c-3 1-3 8-1 9 1 0 0 1-1 2-3 3-3 4 0 4 2 0 2 3 0 4-1 0-1 1 0 1s2 2 2 4 0 3 1 2c0-2 0-2 0 0s0 3-1 3c-2 0-2-1-2-2zm96-3c-1-1-2-3-2-4s-1-1-1-1c-1 0-1-2-1-3 0-2 1-4 4-6 2-3 4-5 4-6s0-1 1-1c0 0 1 4 1 10s-1 10-1 10c-1 0-1 0-1 2s-1 2-4-1zm-16-18c0-1 0-1 1-1 0 0 1 0 1 1l-1 1c-1 0-1-1-1-1zM82 8c0-3-3-5-7-5-2 1-3 0-3 0 0-1 0-1 2-1 1 0 2-1 2-1 0-1 2-1 5-1 2 0 5 0 5 1l-1 1c-1 0-1 1-1 4 0 2-1 4-1 4-1 0-1-1-1-2zm26 1c0-1-1-1-2-1-2 0-2-1-2-1 0-1-2-1-4-1-3 0-4-1-4-1 0-1 0-1 1-1l1-1c0-1-2-1-3-1-2 0-3-1-3-1 0-1 19-1 20-1 1 2-2 10-4 10V9z" fill="#9D2B0B"/><path d="M0 113c0-10 0-15 1-15 0 0 1-1 1-2 0-2 0-2 1-2 0 0 1-2 1-3 0-2 0-3 1-3 0 0 1-2 1-3 0-2 0-3 1-3 0 0 1-2 1-3s0-3 1-4c2-2 3-2 3 0 0 1 4 7 5 7 0 0 1-2 1-3 0-2 0-4 2-4 1-1 1-3 2-4 0-3 2-6 3-5 1 0 0 1 0 1-2 1-2 5-1 7 1 1 1 1 3-1 1-2 3-2 3 1 0 1-1 2-1 2-1 0-1 0-2 1 0 1 1 1 2 1 2 0 2 0 2 1 1 2 0 3 0 3-1 0-1 0-1 2 0 1-1 2-1 2-1 0-1 3-1 9 0 4-1 9-1 9-1 0-3-3-3-5 0-1-1-1-2-1-2 0-2 0-2 1 0 2 6 9 8 9 0 0 2 1 3 3 4 3 5 3 5 1s0-2 1-2c0 0 1-1 1-2 0-2 0-2 1-2 0 0 1-1 1-2 0-2 0-2 1-2 0 0 1 1 1 4 0 2-1 4-1 4-1 0-1 0-1 1-1 1-1 3-2 3s-1 1 1 2c1 0 1 1 0 1-2 1-2 3 1 3 1 0 2-1 2-1 0-2 2-2 4 0s2 5 1 5-1 0-1 2-4 2-5 0c0-1-1-1-1 0-1 1-6 2-21 2H0v-15zm32 0c0-1-2-1-3-1-2 0-3 0-3 1 0 0 1 1 3 1 1 0 3-1 3-1zm-6-31c2-2 2-2 0-2s-2 0-2 2 0 2 2 0zm-2-6c0-2-1-2-1-2-1 0-1 0-1 2 0 1 0 2 1 2 0 0 1-1 1-2zm26 49c0-4 0-4 2-2 1 1 1 2 0 3-2 2-2 2-2-1zm-10-10c0-1 0-1 2-1 1 0 2 0 2 1 0 0-1 1-2 1-2 0-2-1-2-1zm-6-8c0-1 0-1 1-1 0 0 1 0 1 1l-1 1c-1 0-1-1-1-1zm48-17c0-2 0-2 1-2 0 0 1-1 1-2 0-2 2-4 3-4s0 3-1 5c-2 0-2 2-2 3s-1 2-1 2c-1 0-1-1-1-2zm20-5c0-1 0-1 1-1 0 0 1 0 1 1l-1 1c-1 0-1-1-1-1zM10 68c0-2 0-2 3-2s5-1 5-2c0 0 1-1 1 0 1 1-2 4-4 4-1 0-1 0-1 1 0 0-1 1-2 1-2 0-2-1-2-2zm46 1c0-1 3-4 3-3 0 0 0 1-1 2-1 2-2 2-2 1zm8 0c0-1 0-1 1-1 0 0 1 0 1 1l-1 1c-1 0-1-1-1-1zm4-2c0-1 0-1 1-1 0 0 1 0 1 1l-1 1c-1 0-1-1-1-1zm-6-4c0-1 0-1 1-1 0 0 1 0 1 1l-1 1c-1 0-1-1-1-1zm-16-4c0-1-1-2-1-2-1 0-1-1-1-2s-1-1-1-1c-1 0-1-2-1-3 0-2-1-3-1-3-1 0-1-1-1-2 0-2-1-2-3-2s-4 0-4 1c0 0-1 1-1 0 0 0 0-2 2-3l3-3 2 3 3 3c0 1 2 4 4 6l5 5 3-4c2-2 3-3 3-2s2 2 4 2 3 0 3 2c0 1-1 2-2 2s-3-1-3-2c-1-2-2-2-3-2v2c0 1-1 2-2 2s-2 0-3 1-1 2-1 3-1 2-2 2c-2 0-2-1-2-3zm38-1c0-2-3-4-5-4-1 0-1-1-1-1 0-1 0-1 1-1 0 0 1-1 1-2 0-2-1-2-1-2-1 0-1 0-1 2 0 1-1 2-3 2-3 0-3-1-3-2 0-2 0-2 1-2 2 0 7-5 7-7l-2-2c-1-2-2-2-3 0s-3 3-4 3-2 0-2 1-1 1-1 0c-1-2-4-2-4 1 0 1-1 2-2 2-2 0-2-1-2-1 0-2-6-2-7 0 0 1-1 1-1 0s-2-1-4-1c-1 0-2-1-2-1 0-1 1-1 3-1 3 0 4-3 1-5-2-2-3-5-2-5 0 0 2 1 4 3 1 1 3 3 4 3s2 0 2 1 3 1 4-1c0-1 1-1 1 0 1 2 5 2 5 1s1-1 3-1 3-1 3-2c0-2 0-2 1-2 0 0 1-2 1-4 0-3-1-4-1-4-1 0-1-1-1-1 0-1 0-1 2-1 1 0 2-1 2-2 0-2-1-2-3-2s-3-1-3-1c0-2 5-2 6 0 0 1 1 1 1 0s3-1 7-1c3 0 5-1 6-2 0 0 2 1 4 3s5 4 6 4c4 1 6 3 6 5 0 1 0 2 1 2 0 0 1 0 1 2 0 1 0 2 1 2 0 0 1 0 1 2 0 1 0 2 1 2 0 0 1 0 1 2 0 1 0 2 1 2 0 0 1 0 1 1s0 3 1 3c0 0 1 1 0 1-1 1-3-2-3-4 0-1-1-1-1-1-1 0-1-1-1-2 0-2-1-2-2-2-2 0-2 0-2 2s-3 2-5 0-2-2 2-2c3 0 4-3 0-6-1-1-2-2-1-3l1-1c-1 0-2 0-2 1s-2-1-4-3c-5-5-5-5-5-2 0 1 0 2 1 2 0 0 1 0 1 2 0 1 0 2 1 2 0 0 1 0 1 2 0 1 0 2 1 2s1 3-1 4c-1 0-1 1 0 1s2 1 2 3c0 1 0 2 1 2 0 0 1 1 0 1 0 0-1 0-2-1-2-2-3-2-10-2-8 0-9 0-5 3 1 0 2 2 2 3s0 2 1 2c0 0 1 0 1 2 0 1 0 2 1 2 0 0 1 1 1 3 0 3-2 4-3 1 0-1-1-1-1 0-1 2-2 2-2 0zm4-37c0-1-2-1-3-1-2 0-3 0-3 1 0 0 1 1 3 1 1 0 3-1 3-1zM2 56c0-2 0-2 1-2s2-1 3-2c2-2 2-4 1-4s-1-1-1-2c0-3-1-3-3-1-2 1-2 2-1 2 2 1 2 5 1 5s-1-1-1-2c0-2-1-2-1-2-1 0-1-4-1-8 0-8 0-8 3-12 5-4 6-8 3-8-1 0-3-1-3-2s-1-1-1 0c-1 3-2 2-2-1 0-2 0-4 1-4s1-1 0-1-1-3-1-7V0h14c8 0 14 0 14 1l-1 1c-1 0-1 0-1 2 0 1-1 2-3 2s-3 0-3 1c0 0 0 1 1 1s1 3-2 5c-2 2-7 3-7 2s-2-1-3-1c-2 0-3 0-3 1 0 0 1 1 3 1 1 0 3 0 3 1 0 0 1 1 4 1 2 0 4 0 4 1l-1 1c-1 0-1 2-1 5 0 4-1 6-2 7-1 2-4 2-4 1s-2-1-4-1c-3 0-5 0-4 1h1s1 1 1 3 0 4 1 4c0 0 1-2 1-3 0-4 0-4 2-2 2 1 2 2 1 2-2 1-2 7 0 7 0 0 1 1 1 3 0 4-2 7-5 7 0 0-2 0-2 2-1 1-2 2-3 2v-2zm17-4c-6-6-6-7-4-9 1-1 2-1 6 3 2 2 3 4 3 5v1c1 0 2 1 2 3 0 1-1 2-1 2-1 0-3-2-6-5zm53 5c0-1 3-4 3-3 0 0 0 1-1 2-1 2-2 2-2 1zm6 0c0-1 0-1 1-1 0 0 1 0 1 1l-1 1c-1 0-1-1-1-1zM26 42c0-2-1-2-1-2-1 0-1-1-1-2 0-2-1-2-1-2-1 0-1-4-1-9 0-8 0-9 2-11 1 0 2-2 2-3s0-1 1-1c0 0 1-1 1-2 0-2 0-2 1-2 0 0 1-1 1-2 0-2 0-2 3-2 1 0 3-1 3-1 0-1 0-1 2-1 1 0 2 0 2 1 0 0-1 1-2 1-2 0-2 0-2 1 0 0-1 1-2 1-2 0-2 0-2 1s-1 3-2 3c-2 1-2 3-2 4s-1 2-1 2c-2 0-2 7 0 8 1 0 0 1-1 2l-3 3 3 2c2 1 2 2 0 3-1 0-1 1 0 1s2 2 2 4c0 1 0 3 1 3 0 0 1 0 1 1 0 0-1 1-2 1-2 0-2-1-2-2zm96-3c-1-1-2-3-2-4s-1-1-1-1c-1 0-1-2-1-3 0-2 1-4 4-6 2-3 4-5 4-6s0-1 1-1c0 0 1 4 1 10s-1 10-1 10c-1 0-1 0-1 2s-1 2-4-1zm-90-3c0-3 0-3 2-1s2 3 0 3-2-1-2-2zM0 26c0-2 0-2 1-2 0 0 1 0 1 2 0 1-1 2-1 2-1 0-1-1-1-2zm106-5c0-1 0-1 1-1 0 0 1 0 1 1l-1 1c-1 0-1-1-1-1zM82 8c0-3-3-5-7-5-2 1-3 0-3 0 0-1 0-1 2-1 1 0 2-1 2-1 0-1 2-1 5-1 2 0 5 0 5 1l-1 1c-1 0-1 1-1 4 0 2-1 4-1 4-1 0-1-1-1-2zm26 1c0-1-1-1-2-1-2 0-2-1-2-1 0-1-2-1-4-1-3 0-4-1-4-1 0-1 0-1 1-1l1-1c0-1-2-1-3-1-2 0-3-1-3-1 0-1 19-1 20-1 1 2-2 10-4 10V9z" fill="#5C200C"/><path d="M0 116c0-8 0-12 1-12 0 0 1-2 1-4 0-3 0-4 1-4 0 0 1-2 1-3 0-2 0-3 1-3 0 0 1-2 1-3 0-2 0-3 1-3 0 0 1-2 1-3 0-2 0-3 1-3 0 0 1 0 1 2 0 1 0 2 1 2 0 0 1 3 1 7s0 7 1 7c0 0 1 1 1 4 0 2 0 4 1 4 0 0 1-3 1-6 0-4 0-6 1-6 0 0 1 0 1 1s0 2 1 2c0 0 1 1 1 3s0 4 2 5c1 0 2 2 2 3s0 2 3 2c1 0 3 0 3 1 0 0-2 1-3 1-3 0-3 0-3 2 0 1 0 2 2 2s7 3 8 5c0 1-6 0-7-1 0 0-1-1-1 0-2 1 2 4 7 4 4 0 6-2 3-3 0 0-1-1 0-1 0 0 1 0 2 1 3 3 4 3 4 1 0-3 0-3 2-1 2 1 2 2 1 2-2 1-2 5 0 5 0 0 1 0 1 1s-4 1-5-1c0-1-1-1-1 0-1 1-6 2-21 2H0v-12zm20 9c0-1-1-1-1-1-1 0-1 0-1 1 0 0 0 1 1 1l1-1zm20-10c0-1 0-1 1-1 0 0 1 0 1 1l-1 1c-1 0-1-1-1-1zm-15-13c-2-2-2-4 1-5 1-1 2-1 2 2 0 5-1 5-3 3zM10 67c0-1 0-1 2-1 1 0 2 0 2 1 0 0-1 1-2 1-2 0-2-1-2-1zm38-8c0-1 0-1 1-1 0 0 1 0 1 1l-1 1c-1 0-1-1-1-1zm-29-7c-5-5-5-6-4-7s2-1 3-1 4 2 4 4c0 0 0 2 2 3 1 1 2 7 1 6-1 0-3-2-6-5zM4 55c0-1 0-2 2-2 1-2 2-3 2-11v-8s1 0 2 1c2 1 2 2 1 2-1 1-1 3-1 9 0 7-1 8-2 8-2 0-2 0-2 1l-1 1c-1 0-1-1-1-1zm41-1c-1-1-1-1-1-2 1 0 2 0 2 1 2 2 1 2-1 1zm35-1c0-1 0-1 1-1 0 0 1 0 1 1l-1 1c-1 0-1-1-1-1zm-6-4c0-1 0-1 1-1 0 0 1 0 1 1l-1 1c-1 0-1-1-1-1zM0 40c0-8 0-8 2-8 1 0 2 0 2 6-1 6-2 10-4 10v-8zm50 3c0-1 0-1 2-1 1 0 2 0 2 1 0 0-1 1-2 1-2 0-2-1-2-1zm6 0c0-1 1-1 3-1 1 0 3 0 3 1 0 0-2 1-3 1-2 0-3-1-3-1zm41-1c-2-2-3-2-9-2-4 0-6 0-6 1l-1 1c-1 0-1-2-1-3 0-2-1-4-3-5-1-1-2-2-1-2 2-1 2-4 1-4s-1-1-1-2c0-2 6-9 7-8 1 0 0 1 0 1-3 1-1 3 3 3s5 0 7 2c1 1 3 3 3 4s0 2 1 2c0 0 1 1 1 2 0 2 0 4 1 4s1 1 0 1c-2 1-2 5 0 5 0 0 1 0 1 1s-2 1-3-1zm-25-2c0-2 2-4 4-4s2 0-1 3-3 3-3 1zm40 1c0-1 0-1 1-1 0 0 1 0 1 1l-1 1c-1 0-1-1-1-1zm11-1c-1-1-1-2-1-3s-1-1-1-1c-1 0-1-1-1-2 0-2-1-2-1-2-1 0-1-1-1-2 0-2 7-9 9-9 0 0 1 3 1 8s-1 9-1 9c-1 0-1 0-1 2s-1 2-3 0zm-97-1c0-1 0-1 1-1 0 0 1 0 1 1l-1 1c-1 0-1-1-1-1zm82-4c0-2 0-3 1-3 0 0 1 0 1 2 0 1 0 2 1 2 0 0 1 0 1 1 0 0-1 1-2 1-2 0-2-1-2-3zm-96-2c0-1-2-1-4-1-4 0-6-1-4-2 1 0 2-2 2-3s0-1 2-1c1 0 2-1 2-2-1-2-5-6-8-6-1 0-2-1-2-1 0-1 2-1 5-1 2 0 5 0 5 1 0 0 1 1 4 1h4v6c0 4-1 7-2 8-1 2-4 2-4 1zm10 0c0-1 0-1 1-1 0 0 1 0 1 1l-1 1c-1 0-1-1-1-1zm74-10c-2-3-4-3-7-3-5-1-5-2 1-3 3 0 4 0 7 3 2 2 4 6 2 5-1 0-2-1-3-2zm-22-4c0-1 0-1 1-1 0 0 1 0 1 1l-1 1c-1 0-1-1-1-1zM8 13c0-1-2-1-4-1H0V0h28l-2 2c-1 1-1 2-1 3 0 0-1 1-3 1-3 0-4 0-4 1 0 0 0 1 2 1s2 2 0 4-12 2-12 1zm98-6c0-1-2-1-4-1-3 0-4-1-4-1 0-1 0-1 1-1l1-1c0-1-2-1-3-1-2 0-3-1-3-1 0-1 17-1 18-1 0 1 0 3-1 4 0 3-1 4-3 4-1 0-2-1-2-1zM80 5c0-1-2-1-3-1-2 0-3-1-3-1 0-1 0-1 2-1 1 0 2-1 2-1 0-1 1-1 4-1h4c0 1-5 6-6 6V5zM36 3c0-1 0-1 1-1 0 0 1 0 1 1l-1 1c-1 0-1-1-1-1z" fill="#130D0D"/></g></svg>
