<?xml version="1.0" encoding="UTF-8" standalone="no"?>
<!DOCTYPE svg PUBLIC "-//W3C//DTD SVG 1.1//EN" "http://www.w3.org/Graphics/SVG/1.1/DTD/svg11.dtd">
<svg width="100%" height="100%" viewBox="0 0 32 32" version="1.1" xmlns="http://www.w3.org/2000/svg" xmlns:xlink="http://www.w3.org/1999/xlink" xml:space="preserve" xmlns:serif="http://www.serif.com/" style="fill-rule:evenodd;clip-rule:evenodd;stroke-linejoin:round;stroke-miterlimit:2;">
    <g transform="matrix(0.0409571,0,0,0.0409571,-5.0079,-3.08654)">
        <g id="logo">
            <g id="path" transform="matrix(24.4158,0,0,24.4158,122.272,75.3604)">
                <path d="M13.999,27.198L13.999,27.713C13.999,29.886 12.237,31.648 10.064,31.648C7.891,31.648 6.13,29.886 6.13,27.713L6.13,19.849C6.13,19.8 6.131,19.751 6.132,19.703L6.132,10.675C6.132,8.505 7.894,6.743 10.064,6.743C12.234,6.743 13.996,8.505 13.996,10.675L13.996,11.807L18.308,8.453C18.308,8.453 18.54,8.296 18.519,8.128C18.498,7.959 18.409,7.946 18.253,7.839C17.712,7.464 17.374,6.842 17.374,6.161C17.374,5.033 18.288,4.12 19.415,4.12C20.542,4.12 21.456,5.033 21.456,6.161C21.456,6.368 21.42,6.499 21.487,6.613C21.555,6.728 21.674,6.742 21.83,6.74C21.989,6.739 22.148,6.748 22.306,6.766C22.402,6.777 22.498,6.826 22.535,6.903C22.571,6.979 22.549,7.051 22.549,7.174C22.549,8.081 23.284,8.816 24.191,8.816C24.389,8.816 24.584,8.78 24.767,8.711C24.901,8.661 25.008,8.603 25.141,8.655C25.275,8.707 25.295,8.751 25.359,8.875C26.217,10.538 25.784,12.608 24.276,13.781L16.787,19.606L24.041,24.442C25.847,25.645 26.335,28.089 25.131,29.894C23.928,31.7 21.485,32.188 19.679,30.985L13.999,27.198Z" style="fill:inherit;"/>
            </g>
            <circle id="blob1" cx="503.532" cy="185.784" r="33.993" style="fill:inherit;"/>
            <circle id="blob2" cx="535.989" cy="119.866" r="22.178" style="fill:inherit;"/>
            <circle id="blob3" cx="475.598" cy="103.58" r="15.485" style="fill:inherit;"/>
            <circle id="blob4" cx="712.91" cy="250.527" r="27.168" style="fill:inherit;"/>
        </g>
    </g>
</svg>
