<svg version="1" xmlns="http://www.w3.org/2000/svg" width="933.333" height="933.333" viewBox="0 0 700.000000 700.000000"><path d="M340.3.7c-1.8.2-3.3.5-3.3.7 0 2 4.5 8.6 6.2 9.2 1.3.3 3.9 2.1 5.9 3.9 7.6 6.8 11.4 5.4 11.3-4.1-.2-7.5-1.9-9.2-10.4-9.7-3.6-.2-8-.2-9.7 0zM404.5 6c-1.2 1.9-8 4.8-12.8 5.5-10.9 1.7-19.7 11.9-19.7 23.1 0 6.7 1.9 8.2 11.7 9.4 7.9 1 8.9 2 9.8 9.9.4 3.1.9 6.4 1.2 7.4.7 2.5 6.2 4.7 11.8 4.7 5.2 0 8.5 1.4 8.5 3.5 0 .8 1 1.7 2.3 2 13.4 3.2 57.4 6.1 75.7 5.1 13.2-.8 30.4.8 37.5 3.5 4.3 1.6 7.9 4.3 16.3 12.3 14 13.5 18.5 16.6 23.3 16.6 5.7 0 9 3.3 9.6 9.6.5 5.8-1.2 9.5-4.8 10.8-2 .7-3.9.3-8.5-1.8-4.5-2.1-8.4-5.3-16.9-14C534.2 98 522.2 89.2 511 85.5c-6.4-2.1-21.5-3.3-31.1-2.4-9.4.8-18.6 4.4-20.4 8-1.2 2.3-2.6 3-8.7 4.4-4 .9-11.9 2.1-17.6 2.7-8.8.9-10.8.8-14.4-.7-8.8-3.5-24.3-1.1-25 3.8-.2 1.2-.1 8.5.2 16.2.6 15.4 1.8 19.1 6.9 22.1 2.3 1.4 3 2.6 3.5 6.4.7 5.2 1.7 6.5 5.8 7.5 5.2 1.3 4.3 7-2.8 16.6-4.1 5.6-6.7 6.2-12.1 2.9-5-3-4.6-7.1 1.2-12.4 2.5-2.3 4.5-5 4.5-6 0-1.6-.5-1.7-3.7-1.1-4.5.8-4.8 1-14.1 10-7.7 7.4-9.5 10-10.7 15.2-1 4.9 2.2 4.3 6.8-1.2 2.9-3.4 4.5-4.5 6.7-4.5 4.4 0 8 4.7 8 10.5 0 2.6-8.6 10.6-13.4 12.4-4.3 1.7-12.4 1.3-15.7-.6-2.4-1.4-3.1-1.5-3.8-.5-.7 1.1-1.5 1.1-4.7-.3-5.6-2.3-9.9-5.9-14.4-12-3.8-5.1-7.8-7.5-12.7-7.5-2.2 0-4.3 3.2-4.3 6.6 0 5 2.2 9.4 6.9 13.7 2.2 2.1 4.1 4.4 4.1 5.1 0 1.3-3.1 4.6-4.3 4.6-1.4 0-8.9-7.5-9.8-9.7-1.2-3.2-2.5-2.9-4.5 1.2-2.4 5.2-5.9 7.5-11.1 7.5-6.2 0-10.8-2.7-20.7-12.1-6.3-5.9-9.4-9.8-11.7-14.5-4.1-8.2-3.6-11.6 2.6-17.2 5.1-4.6 5.5-5.9 2.3-7.1-4.9-1.8-11.4 5.4-14.5 15.9-.8 3-2.2 5.9-2.9 6.3-1.9 1.1-1.7 4 .8 11.6 1.2 3.9 3.3 7.7 5 9.3 3.1 3 3.4 4.4 1.3 7.2-1.3 1.7-1.8 1.8-4 .6-1.4-.7-2.5-1.7-2.5-2 0-.4-1.2-1.9-2.6-3.4-5.2-5.1-12.6-5-19.4.3-1.9 1.5-5.7 4.2-8.3 6-3.6 2.5-4.7 3.8-4.5 5.4.2 1.2 1.2 2.3 2.3 2.5 4.9.9 10 8.6 11.1 17 1 8 3.1 9.3 16.1 10.4 12.5 1 15.6 2 17.1 5.3 1.1 2.4 2.3 2.9 9.7 3.9 7.5 1 20.1-4 22.3-8.9 1.5-3.3 4.9-3.3 6.4.1 1.3 2.8 6.4 5.8 11.8 6.9 1.9.4 5.4 1.6 7.7 2.7 6 2.8 11.2 1.8 15.3-2.8 1.6-1.9 3-4.2 3-5.1 0-.8 1.5-3.3 3.3-5.3 1.7-2.1 4-5 5-6.4 1-1.4 2.6-2.6 3.5-2.6 3 0 7.8 3.7 9.5 7.3.9 1.9 2.5 3.7 3.5 3.9 3.6 1 7.3 7.3 8.2 14 .7 4.9 1.5 6.7 3.4 8.3 3.3 2.7 5.3 11 6.8 29.3.9 11.2.9 14.7 0 16.2-1.4 2.3-1.6 5-.3 5 .4 0 1 4.4 1.3 9.7.7 14.6 2.6 17.3 12.4 17.3 4 0 4.2-.1 6.3-5.1 1.2-2.8 2.6-8.3 3-12.3 1-8.4 2.4-11.6 5.2-11.6 2.1 0 6.9 4.1 6.9 6 0 .5.6 1 1.3 1 .7 0 4.3 2.3 8 5.1 5.7 4.4 7.4 5.2 12.8 5.8 6.6.8 9.9 3.2 9.9 7.2 0 3.1 3.6 2.3 5-1.1.7-1.7 2.5-3.9 4-5 3.2-2.3 10.8-4.2 11.6-2.9.3.5 2.2.9 4.3.9 4.2 0 6 1.5 7.6 6.4 1.9 5.9 12.3 7 17.7 1.9 3.3-3.1 4.2-7.9 2.6-12.9-1.1-3.1-2-4.1-4.8-5-9.6-3-9.2-23.1.7-37.3 7.9-11.2 9.4-13.8 11.3-20 1.1-3.5 2-7.8 2-9.7 0-5.1-2.8-11-6.6-13.9-3.6-2.8-4.6-6.5-1.6-6.5 3.7 0 6.4 1.4 7.3 3.6 1.1 3.2 6 6 11.6 6.9 12.4 1.8 25.3 12.9 25.3 21.6 0 2.9 3.4 8.3 6.5 10.3 1.3.9 3.8 1.6 5.6 1.6 3.1 0 3.1 0 1-1.8-1.6-1.3-2.2-3.3-2.7-8.7-.7-7.7-2.5-11.5-5.3-11.5-3.1 0-4.8-3.2-5.6-10.5-.7-7.6-2.5-11.5-5.4-11.5-2.9 0-5.3-3.4-4.9-7.1.3-3.1.6-3.4 4.8-4.1 8.6-1.6 11.5-.3 19.4 8.1 4.5 4.8 17.7 1.4 19.1-4.8.5-2.6 1.1-2.9 6-3.5 2.9-.3 5.9-.4 6.7-.2.7.2 2.6.7 4.1 1.1 3.5.7 5.7 5.4 5.7 12 0 5.5 1.4 8.5 3.9 8.5 3.9 0 6.1 3.2 7.1 10.3 1.3 8.7 2.6 11.2 9.3 16.9 9.4 8.1 11.9 18.8 11.9 51.8.1 18.3-.9 31-3.3 44-1.6 8.3-1.8 8.8-4.2 9.2-2 .3-2.2.9-2.5 8.5-.4 10.3 1.1 12.3 8.8 12.3 8.5 0 12-5.5 12-19.2 0-7.7 1.3-11.8 3.8-12.5 4.1-1 7.9-27.6 6.3-43.6-1.4-13.5-3.2-20.2-6.4-23.1-2.6-2.4-3-4.1-4.1-17.3-.7-7.9-2.8-13-6-14.4-2.8-1.3-4.2-4.4-5-11.2-.7-6-3.8-12-7.5-14.8-1.6-1.2-3.1-3-3.4-4-.3-1-2.1-2.4-4-3.2-1.9-.8-3.8-2.1-4.2-2.7-.5-.7-1.4-6.4-2-12.6-1.3-11.6-3.7-17.4-7.1-17.4-1.9 0-4.4-5.9-4.4-10.2-.1-5.8-6.2-16.8-9.4-16.8-.6 0-1.9-1.4-2.8-3-.9-1.7-2.3-3-3.1-3-2.8 0-4.9-3.9-5.7-10.8-1.2-9.4-2.4-11.6-9.2-16.6-5.7-4.3-6.3-5.6-2.5-5.6 3.1 0 8.4-3.7 9.5-6.8 2.1-5.6 2.2-11.2.1-13.3-1-1-2.5-1.9-3.1-1.9-.7-.1-2.9-2.1-4.8-4.6-5.7-7.4-24.5-25-30.7-28.7-3.2-1.9-7.7-3.8-9.9-4.2l-4.2-.6-.4-5.9c-.6-8.7-2.2-10-12-10-7.9 0-8 0-9.1 3-1.7 4.4-8.3 6.4-18.5 5.5-10-.9-15.2-2.2-15.2-4 0-2.5-4.2-4.5-9.8-4.5-9.9 0-12.5-5.4-11.5-24.5l.6-12.2-3.9-1.5c-4.5-1.8-29.2-8.2-37.4-9.6C408.6 5.3 405.1 5 404.5 6zm19 106.5c1.7 1.6 2.5 3.5 2.5 6 0 6.1-6.3 13.6-9.2 10.7-1.3-1.3-2.2-11.3-1.4-15.6.6-3 1.1-3.6 3.2-3.6 1.4 0 3.6 1.1 4.9 2.5zm46.2.1c1.3 2 1.2 2.4-1.8 4.5-3.8 2.7-8.3 2.7-14.4 0-8.5-3.8-5-7.2 6.9-6.8 6.8.2 8.1.5 9.3 2.3zm64.1 22.6l12.3 12.4 1 7c.5 4 1.6 7.4 2.4 8 .9.7 3.4.9 6 .6 6.2-.7 9.7 1.1 14.5 7.3 2.3 2.9 4.8 5.6 5.6 5.9 2 .8 4.4 6.7 4.4 11 0 5.5 1.5 8.3 4.9 9.1 3.9.8 3.9 2.8.2 6.6-2.6 2.5-3.7 2.9-8.8 2.9-17.2 0-27.6-7.6-29.3-21.3-1-8-1.2-8.5-5.4-9.2-4.1-.8-5.3-3-6-11.2-.7-7.3-2.1-10.1-5.6-11-3.5-.9-4.9-3.1-5-7.8-.1-7.4-5.6-18.2-10-19.7-.8-.2-.8-1.1-.1-3.1 1-2.7 1.2-2.7 3.8-1.3 1.6.8 8.3 7 15.1 13.8zm-99.4 85.9c1.4 1.1 2.6 2.9 2.6 4 0 3.2-4.5 11.1-9.6 16.7-5.2 5.9-10.1 8.8-16.6 9.8-3.4.6-5.2 1.7-8.7 5.6-2.5 2.6-4.8 4.8-5.2 4.8-2.8 0-4.5-25.1-2-29.8.8-1.5 2.5-2.1 7.3-2.6 7.1-.8 13.8-4.4 13.8-7.5 0-2.5 1.2-2.9 9.1-3 5.3-.1 7.2.3 9.3 2zm9.1 77.3c6 2.5 6.8 8 2.3 15.3-2.2 3.7-3.3 4-6 1.6-1.5-1.3-1.8-3.1-1.8-10 0-5 .4-8.3 1-8.3s2.6.6 4.5 1.4z"/><path d="M170 49.7c-20.6 13.5-28 18.6-28 19.3 0 .4-2 2-4.5 3.4-4.5 2.7-6.5 6.5-6.5 12.4 0 3-5.5 10.4-8.8 11.9-1.5.7-5.4 1.2-8.8 1.3h-6.1l-9.6 9.7c-25.4 25.8-43.1 51.2-61.6 88.1-12.3 24.5-22.1 52.3-27.6 77.9-2 9.6-2 10.1.9 9.6 1.3-.3 3.4.1 4.7.7 2 1.1 2.5 1 4.1-1 1-1.2 1.8-3.2 1.8-4.5 0-2.7 3.6-7.5 5.6-7.5.8 0 1.9 1.2 2.5 2.6 1 2.8-.6 6.4-4 9.2-3.3 2.6-11.1 6.2-14.9 6.8l-4 .6-1.1 8.2c-2.6 18.2-2.7 16.2 1 17.5 7 2.4 10.9 1.3 17.6-5.2 3.3-3.1 5.2-4.1 9.3-4.8 6.2-1 9.7-3 11.3-6.7 1.6-3.8 2.4-4.2 9.3-4.2 12.5 0 15.9 3.3 9.5 9.3-2.2 2-4.6 4.7-5.3 6-1.3 2.4-3 59.2-2.1 67.9l.6 4.8h6.1c12.1 0 23.5-4.5 25.5-10 .5-1.7 1.6-3 2.4-3 2.2 0 6.6 3.8 8.4 7.3.9 1.8 2.1 3.5 2.7 3.9 1.3.8 3.6-.9 3.6-2.8 0-2.4 6.7-8.6 9.1-8.2 3.2.4 6.4 5.2 6.4 9.6 0 5.1-4.4 13.6-7.2 14-1.5.2-2.4 1.3-2.8 3.2-.4 1.8-1.8 3.7-3.4 4.6-5.1 3-6.4 6.7-7.7 21.9-.9 10.4-1.8 15.5-3.4 19.3-1.2 2.9-2.6 5.2-3 5.2-.4 0-2.3-1.7-4.2-3.9-3.9-4.3-5.3-9-6.3-21.4-1.1-14.2-6.3-26.1-12.5-28.7-3.9-1.6-13-.4-13.7 1.9-1.2 3.9-5.1 12.1-8.8 18.4-5.3 9.1-10.4 11.7-23.8 12.5-5 .2-9.8.9-10.4 1.5-2 1.5-1.5 7.4 1.6 18.2 2.7 9.4 4.4 14.5 12 35.5 6.8 18.6 24.1 50.2 38.5 70.6C106.8 612 168.7 658.1 237 681.1l14.5 4.9.5-3.3c.4-2.6 1-3.3 3.3-3.5 3.6-.4 6.5 2.1 7.3 6.3.5 3.1.9 3.2 9.2 5.3 7.4 1.8 15.2 3.3 30.4 5.7 1.5.2 3.1-.2 3.8-1 1.8-2.1-1.1-6.1-4.8-6.8-3.7-.7-4.8-3.7-5.6-15.5-.7-9.1-3.5-16.7-6.6-17.7-2.5-.8-3.1-2.7-4-11.7-.6-6.5-1.4-8.8-5.1-15.4-2.4-4.2-7.3-11-10.9-15.1-10.8-12.4-14.2-18.1-17.6-29.8-.7-2.3-1.8-3.2-4.6-3.9-4.5-1.1-5.8-3.7-5.8-11.7 0-6.8 1.2-9.9 3.9-9.9 1.4 0 2.4-1.7 4.1-6.8 4.3-13.2 3.5-34.5-1.5-37.8-2.1-1.4-2.7-1.4-5.2 0-4.3 2.2-11 9.6-13.2 14.6-4 8.7-1.6 19 4.3 19 2.6 0 6.6 2.6 6.6 4.3 0 2.5-6.5 5.7-11.6 5.7-7.4 0-9.4.9-10.1 4.1-.6 3.4-4.7 7.4-6.7 6.6-2.1-.8-3.6-9.5-3.6-21.5v-10.6l-5.7 5.5c-3.2 3.1-7 6.3-8.4 7.2-4.5 2.7-6.8 7.8-8 16.8-1.3 10.4-2.6 12.1-7.2 9.6-6.5-3.5-18.4-15.5-21.4-21.5l-2.8-5.7v-62.6l3.1-2.7c4.6-3.9 6.2-7 6.9-13.2 1.3-10.6 2.6-12.7 9-14.4 2-.6 8.9-10.3 11.3-15.9.7-1.5 1.2-4.1 1.2-5.7 0-4.3 1-6 3.5-6 5.1 0 9.2-11.4 6.5-17.9-1.4-3.4-5.2-5.1-11.6-5.1-5.5 0-8-2.3-8.9-8.2-.9-6.6.6-12.1 3.5-12.8 3.5-.8 6.8-11.5 7.6-24.4.6-9.6.7-10 4-13.3 1.9-1.8 3.4-4 3.4-4.8 0-2.2-6.5-3-9.4-1.1-2.9 1.8-8 9-9.1 12.6-1 3.6-6.5 9-9.1 9-1.8 0-2.2.7-2.8 4.7-.3 2.5-1.7 6.5-3.1 8.9-2.5 4.3-10 10.5-14.8 12.3L143 388v-7.5c0-7.5 0-7.6 2.9-8.1 4-.8 7.2-6.9 7.9-15 .4-5.9.6-6.3 3.2-6.9 5.7-1.2 9.4-17.3 5.3-22.4-2.2-2.6-4.4-2.8-10.1-.7-8.1 3-12.7-.8-9.7-8.1.9-2 5.7-8 10.8-13.2 8.7-9 15.7-19.5 15.7-23.5 0-2.9 6-8.6 9.1-8.6 4.2 0 7.5-5.6 8.2-13.9.3-3.7 1.1-6.7 1.9-7.2 2-1.3 15.8-1.1 15.8.2 0 .6-2.4 3.7-5.3 6.8-3.2 3.6-5.8 7.4-6.6 10.1-1.5 5.2-1.6 14.4-.1 20 1.1 4.1 6.3 11 8.4 11 1.7 0 5.7 10.6 6.8 18 .5 3.6 1.5 7.1 2.2 7.8.8.8 4.1 1.7 7.4 2.1 7 .8 10.9 3.1 11.8 6.9 1.4 5.7 9.3 11.2 16.4 11.2 3.7 0 10.3-2.7 15-6 1.5-1.1 3.7-2 4.8-2 2.6 0 7.8-5.1 8.6-8.4.3-1.4 1.5-4 2.7-5.8 1.1-1.8 3.4-5.5 5-8.1l3-4.9 3.7 3.3c5.7 5 31.1 32 33.9 36.1 4.6 6.8 2.3 9.5-8.3 9.7-2.8.1-5.6.7-6.1 1.4-.6.6-1.3 4-1.6 7.3-.6 7.2-2.7 11-7.3 12.9-2.9 1.2-3.4 1.9-3.4 4.8 0 4.3 2.2 6.3 8 7.1 2.5.4 6.3 1.7 8.5 2.9 4.5 2.5 10.5 10.7 10.5 14.3 0 1.5 1.7 4.3 4.3 7 2.3 2.6 5.8 6.9 7.7 9.7 4.3 6.1 5.9 7.2 9.3 6.3 1.9-.4 3.6-2.3 5.8-6.1 3.2-5.7 4.6-6.7 5.5-3.8 1.4 4.7 5 10.6 7.1 11.6 8.4 3.8 13.7-14.4 7.8-27.1-1.7-3.7-3-5.2-4.4-5.2-3.1 0-6.1-4.7-6.1-9.4 0-5.2 4-13.6 8.1-17 3.8-3.2 8.4-4.5 18.4-5.2 10.4-.8 13.9-1.9 17-5.5 2.7-3.3 3.2-7.8 1.4-12.6-1.3-3.5-2.5-4.3-6.6-4.3-3.3 0-3.6.4-4.5 6.5-.4 2.4-5.5 3.2-10.9 1.6-4.9-1.5-14.1-7.6-21.9-14.6-3.5-3.2-9.1-7.6-12.4-9.7-6-3.9-8.4-4.7-18.8-6.8-7.7-1.5-13.5-6.1-17.7-13.9-1.7-3.3-3.4-8.2-3.8-10.9-.5-4.8-.5-4.9 2.7-6.1 1.8-.6 5.1-1.1 7.4-1.1 3.5 0 4.5.5 6.8 3.4 5.8 7.3 17.2 9.4 30.3 5.8l6-1.7.1-7c.1-9.3-1.2-17.4-3.1-19.5-1.1-1.2-3.8-1.9-8.6-2.3-8.3-.7-9.9-.2-9.9 2.8 0 1.2-.9 3-2 4-3.9 3.5-22 0-22-4.4 0-1.6 2-4 7.4-9 2.9-2.6 3.3-4.1 1.2-4.1-.8 0-1.6-.6-1.9-1.3-.6-1.7-4 .4-4.7 2.9-1.2 4.6-3.3 6.1-8.5 6-4.5-.1-5.8.4-11.8 4.7-3.7 2.7-9.8 7.5-13.5 10.8-7.1 6.3-9.1 7.1-9.9 3.9-.8-2.9-5.4-5-10.9-5-3.9 0-5.1-.5-8-3.4-2.9-2.9-3.4-4.1-3.4-8 0-5-2.3-10.6-4.3-10.6-.6 0-2.3-1.2-3.6-2.6-1.9-2-2.6-4-2.9-8.7-.5-6.7-2.4-10.7-5.2-10.7-3.2 0-5.1-3.5-5.9-11-.9-8.3-3-11-8.6-11-5 0-6.1-.7-9.5-6.3-1.8-2.9-4.9-6.4-7-7.9-4.7-3.3-16.7-19.2-17.6-23.3-.8-3.6-3.1-6.5-5.4-6.5-.9 0-2.9-1.3-4.4-2.9-1.5-1.6-4.5-3.7-6.6-4.6-3.4-1.5-4.4-1.6-7-.5-1.8.7-3.6 2.4-4.1 3.7-1.3 3.4-4.4 2.9-7.6-1.4-1.5-2-4.8-5.8-7.2-8.4-5.8-6.5-5.2-7.9 3.4-7.9 6.4 0 11.1-1.3 14.9-4.2 2.5-2 .7-5.4-3.4-6.3-3.5-.8-3.7-1-8.4-13.6-3.2-8.5-3.6-10.8-3.6-18.7 0-5.7-.6-10.9-1.7-14.2l-1.7-5.2 6.9-6.6c5-5 7.7-8.6 10.3-14.2 1.9-4.1 5.4-10.2 7.7-13.5 6.5-9.4 6.7-10.2 1.5-6.8zm2.5 149.8c2.9 2.8 3.3 7.7 1.1 12.9-1.5 3.5-6.6 6.6-11.1 6.6-3.8 0-8.1-2.6-8.9-5.2-1-4-.7-14.3.6-15.6.7-.7 4.2-1.2 8.5-1.2 6.5 0 7.7.3 9.8 2.5zm-44.5 10c0 .9-1.6 3.1-3.5 5-1.9 2-4.1 4.8-5 6.4-2 4-2.9 13-1.6 16.3 2.1 5.4 9.4 2.4 12.4-5.1 1.9-4.7 4.3-5.9 6.9-3.2 2.6 2.8 2.3 3.7-2.3 8-3.6 3.3-4.1 4.2-3.5 6.6.4 1.5 6.3 8.4 14.1 16.4 7.4 7.6 13.5 14.4 13.5 15.2 0 .8-1 2.7-2.3 4.3-2 2.4-2.8 2.7-5.4 2.2-5.8-1.3-17-9.9-27.5-21.1-5.7-6.1-14.7-15.3-20-20.4-5.4-5.2-9.8-9.8-9.8-10.2 0-.5 3.1-2.4 6.9-4.3 6.6-3.4 10.1-6.3 16.7-14 2.5-2.9 3.8-3.6 6.8-3.6 2.6 0 3.6.4 3.6 1.5zm-54.6 23c2 3.1 2 4.4-.1 6.7-2 2.2-3.7 2.3-5.8.2-1.1-1.2-1.4-2.5-1-4.3 1.4-5.5 4.3-6.6 6.9-2.6zm2.2 26.1c11.2 9.4 48.3 47 52.2 52.8 1.7 2.7 3.2 5.7 3.2 6.6 0 2.9-4.6 6.2-9.3 6.7-6 .7-11.2-1.2-16.4-6-4-3.7-4.5-3.9-6.8-2.7-3.5 1.9-3.1 3.3 1.8 8.3 4.8 4.9 6.7 9.9 6.7 17.4 0 5.8-1 7.1-4.9 6.5-3.2-.4-4-2.2-4.1-8.2-.1-7-6.3-17-10.6-17-2.5 0-4.9-2.4-3.9-4 .3-.6 2.1-1.7 4-2.4 3.9-1.7 6.4-5 7.2-9.9.8-5.1-3.2-13.1-9.6-19.2-2.9-2.8-8.4-8.7-12.2-13.1l-6.9-8.1v-7.2c0-3.9.4-7.1.8-7.1.5 0 4.5 3 8.8 6.6zm141.8 28.6c.9 1.5.5 2.4-2.2 5l-3.3 3.3-2-2.4c-1.9-2.3-2.5-6.1-1.2-7.5 1.3-1.3 7.6-.1 8.7 1.6zm11 22c1.6 2.5-3.9 8.2-6.5 6.7-2.1-1.1-3.4-5.1-2.5-7.5.8-2.1 7.5-1.5 9 .8zM357 361.8c0 3.2-8.7 12.1-14.5 14.8-11.1 5.3-17.5 1-10.5-7 4.6-5.2 12.2-8.6 19.2-8.6 3.2 0 5.8.3 5.8.8zm-9.9 44.2c2.6 1.5 2.4 4.2-.6 7-2 1.9-3 2.2-4.3 1.4-1.8-1.1-2.8-5.5-1.8-8 .6-1.6 3.9-1.8 6.7-.4zM117.3 538.1c4.9 2.6 11.2 8.6 14.7 14.1 3.8 6 12.5 15.8 14.1 15.8 1.7 0 5 4.5 6 8.4 2.5 9.1-4.2 11.7-13.2 5-8.2-6-18.9-22-18.9-28.4 0-3.7-3.7-9.1-7-10.3-3.4-1.3-3.9-3.1-1.2-4.6 2.2-1.3 2.9-1.3 5.5 0zm87.8 42.9c2.5 1.4 2.4 3.8-.3 6.7-2.8 3-4.4 2.9-6.4-.2-2.3-3.5-1.2-7.5 2.2-7.5 1.4 0 3.4.5 4.5 1zm-42.6 34c2.1 2.3 1.1 4.1-3.7 6.6-3.9 2-5.8.4-5.8-4.7 0-3.9 0-3.9 3.8-3.9 2.6 0 4.5.7 5.7 2zm97.6 10c2.7 1.5 2.4 3.2-1.1 6.5-2.9 2.8-3 2.8-5 1-1.9-1.7-2.7-6.4-1.3-7.8 1-1 5.2-.8 7.4.3zm-33.3 20.8c1 .7.8 1.2-.5 2.4-5.4 4.7-9.2 4.4-7.4-.5.8-2 1.7-2.7 3.8-2.7 1.6 0 3.4.4 4.1.8zM558 73c0 2.9.2 3 4.3 3h4.2l-2.5-2.1c-5.2-4.1-6-4.3-6-.9zM624 136.2c0 2.6 2.2 5.8 4.1 5.8 1.6 0 .9-2.4-1.6-5.5l-2.5-3v2.7zM645.1 170c0 10.3 1.5 14.1 6.1 16.2 4.1 2 4.5 2.9 5.6 12.8.6 5.7 1 6.6 3.4 7.8 3.2 1.5 6.8 6.2 6.8 8.9 0 4.6 2.2 9.4 4.7 10.4 4.3 1.6 4.9-.2 2.4-7.1-4.8-13-19.2-41.7-26.8-53l-2.3-3.5.1 7.5zM592.3 339.7c-2.2.8-1.6 7 .9 8.7 2.1 1.5 2.4 1.4 5-1.1 3.4-3.2 3.5-4.7.6-6.7-2.3-1.6-4.2-1.9-6.5-.9zM590.3 373.3c-2.1 1.9-5.9 4.8-8.5 6.6-5 3.3-6.3 6.7-3 7.7 8.3 2.6 11 5.9 11.8 14.7 1 10.5 1.4 11.8 3.9 12.7 3.9 1.5 4.7 4.2 2.1 6.7-2.1 2-2.5 2.1-4.4.7-1.2-.8-2.2-2.1-2.2-2.9 0-2.1-3.3-3.5-7.9-3.5-8.1 0-16.9-5.2-19.5-11.5-1.8-4.2-6.8-8.2-11.9-9.5-15.4-4-16.8-4.9-22-14.1-3-5.2-6.3-7.8-11.3-8.6l-3.4-.6v7.5c0 9.9 1.4 13.7 5.2 14.5 3.7.7 5.8 4.7 5.8 11.2 0 6.6 1.5 9.8 5.1 10.5 3.8.7 5.9 5.1 5.9 12.1 0 5 .4 6 3 8.5 5.6 5.2 7.1 12.3 7.9 36.9l.6 19.3 6.2-4.7c12.6-9.4 26.3-28.2 24.9-33.9-.9-3.7-5.4-8.5-10.1-10.7-7.2-3.4-11.9-10-10.7-15.2.3-1.4 1.5-1.7 7.6-1.7 10.4 0 13.2 1.2 14.8 6.3l1.3 4.2 6.2.7c6.6.7 9.3 1.9 16.1 7 3.9 3 5.2 3.3 12.3 3.7l7.9.3v3.5c0 4 1.5 7.3 3.4 7.3 2.4 0 5.8-9.9 6.6-19.4 1-11 1.2-11.6 5.1-13.8 5.1-3 7.3-11.4 4.8-18.7-.9-2.4-1.7-3.1-3.7-3.1-2.6 0-5.9 2.3-17.6 12.3-5.2 4.4-12.6 6.3-12.6 3.3 0-1.6 4.5-6.6 5.9-6.6 1.4 0 4.1-5.9 4.1-8.8 0-4.4-4.2-8.9-9.7-10.4-6.1-1.7-8.2-4.7-8.9-12.8-.9-10.6-1.1-11-4.4-11-2 0-4.3 1.1-6.7 3.3z"/><path d="M199.4 372c-2.6 1-3.8 8.4-2.5 15.4 1.3 7.2 4.5 8.6 8.1 3.6 3.9-5.5 3.9-14.1 0-18-2.2-2.2-2.5-2.3-5.6-1zM690.2 373.2c-.7.7-1.2 2-1.2 2.9 0 2.9-5.7 6.2-11.4 6.6-8.9.7-9.6 1-9.6 4.3 0 3.9 2.9 5.6 10.8 6.4 7 .6 10.2 1.9 10.2 4.1 0 2.8 2.3 6.5 4.1 6.5 2 0 2.3-1.2 4-15.4 1.1-9 1-10.2-.6-13.3-1.9-3.4-4.2-4.2-6.3-2.1zM459 447.4c0 13-2.5 21.2-7 22.9-2.5 1-2.8 1.6-3.3 7.9-.6 6.4-3.2 12.5-6 13.7-.5.2-1.8 1.2-2.8 2.2-1.6 1.6-1.9 3.4-1.9 10.1-.1 14.2-3.7 31.8-6.5 31.8-2.9 0-3.9 3.4-4.6 15.3-.4 6.7-1.5 14.5-2.4 17.4-1.9 6.3-5.8 11.3-8.9 11.3-5.3 0-3.5 3.5 2.2 4.6 4.3.8 7.1 3.8 7.2 7.7 0 2-.6 3-1.9 3.4-2.7.7-6.7 6.8-9.2 13.8-2.2 6.4-3.8 22-3.9 38.5-.1 10.3-1.7 18.1-4 18.8-.6.2-1 5.6-1 14.4v14l2.8-.6c1.5-.3 4.5-.8 6.7-1.2 8.5-1.4 28.8-6.5 39.6-10 14.6-4.7 39.7-14.2 41.7-15.9.1-.1-.5-1.6-1.4-3.3-.8-1.8-1.8-5.8-2.1-8.9-.7-7.5-1.6-8.9-5.6-9.7-4.4-.8-5.7-3.7-5.7-12.9 0-8.1.9-9.7 5.3-9.7 1.6 0 4.7-1 6.8-2.2 6.5-3.7 4.4-7.8-4-7.8-4.5 0-8.1-2.6-8.1-5.9 0-3-3.9-5.1-9.1-5.1-8.3 0-13.9-3.3-12.3-7.3 1-2.6 5.6-3.7 19.9-4.6 7.7-.5 14.7-1.2 15.5-1.4.8-.3 4.1-1.3 7.3-2.2 3.2-.9 5.7-2.1 5.7-2.9 0-1.8-4.4-3.6-9-3.6-5 0-7-2.7-7-9.5 0-6.2-2.7-11.9-5.7-12.3-3.8-.6-5.3-3.9-5.3-11.7 0-4.2.5-7.8 1.3-8.7.8-1 3.7-1.8 8.7-2.2 9.8-.8 18.1-4.7 25.4-11.8 5.1-4.9 7.1-8.8 4.6-8.8-.5 0-2.5-1.4-4.5-3.1-3.8-3.4-6.1-9.3-5.1-13.3.7-3 4.3-6.6 6.6-6.6 4.1 0 7.9-13.8 5.4-19.8-1-2.6-1.9-3.2-4.2-3.2-1.6 0-4.4.7-6.1 1.6-4.1 2.1-11.6 2-14.8-.1-3.2-2.2-6.3-7.4-6.3-10.8 0-8.6-11.5-19.4-22.5-21.2-2.2-.3-5.5-.8-7.2-1.1l-3.3-.5v10.5zm19.2 24.8c.7 1.3 1.2 5.6 1.1 10.1-.1 9.7-3.8 18.3-9 20.7-3.5 1.6-4.5 5-1.5 5 1 0 3.3 1.2 5.1 2.7 4.7 4 5.2 9.4 1.7 16.6-3.4 7-16.5 22-22 25.2-5.7 3.3-12.7 4.3-14.9 2-3.1-3-1.9-7.1 2.3-7.6 3.5-.5 7-7.1 7-13.2 0-5.7 1.4-8.7 3.9-8.7 3 0 6.2-9 7.1-20.2.9-10.7 1.2-11.5 4.6-12.8 2.9-1.1 6.4-7.8 6.4-12.2 0-3.9 3.3-9.8 5.5-9.8.8 0 2 1 2.7 2.2z"/><path d="M503.4 452.6c-.4 2-.4 6.1-.1 9.1.9 8.6 3.9 10.7 7.7 5.3 2.9-4.1 3.6-9.7 1.7-14.3-1.4-3.3-2-3.7-5.1-3.7-3.2 0-3.6.3-4.2 3.6zM591 496.3c0 2.1.7 4.1 2 5.2 2 1.8 2.1 1.8 5.3-1.3 4.1-4.1 3-6.6-3.2-7-4.1-.3-4.1-.3-4.1 3.1z"/></svg>